<svg width="96" height="95" viewBox="0 0 96 95" fill="none" xmlns="http://www.w3.org/2000/svg">
<path d="M47.8143 94.8991C73.8948 94.8991 95.0373 73.7566 95.0373 47.6761C95.0373 21.5956 73.8948 0.453125 47.8143 0.453125C21.7338 0.453125 0.591309 21.5956 0.591309 47.6761C0.591309 73.7566 21.7338 94.8991 47.8143 94.8991Z" fill="#233063"/>
<path d="M47.8141 75.2269C63.0824 75.2269 75.4598 62.8495 75.4598 47.5812C75.4598 32.3129 63.0824 19.9355 47.8141 19.9355C32.5458 19.9355 20.1685 32.3129 20.1685 47.5812C20.1685 62.8495 32.5458 75.2269 47.8141 75.2269Z" fill="#E7E4DD"/>
<path d="M47.8147 77.2309C31.5185 77.2309 18.2607 63.9731 18.2607 47.677C18.2607 31.3808 31.5185 18.123 47.8147 18.123C64.1108 18.123 77.3686 31.3808 77.3686 47.677C77.3686 63.9731 64.1108 77.2309 47.8147 77.2309ZM47.8147 18.8369C31.9135 18.8369 18.9745 31.7734 18.9745 47.677C18.9745 63.5806 31.9111 76.5171 47.8147 76.5171C63.7183 76.5171 76.6548 63.5806 76.6548 47.677C76.6548 31.7734 63.7183 18.8369 47.8147 18.8369Z" fill="white"/>
<path d="M36.757 35.8505L36.084 36.5234L58.8712 59.3106L59.5441 58.6376L36.757 35.8505Z" fill="#233063"/>
<path d="M58.8712 35.8495L36.084 58.6367L36.757 59.3097L59.5441 36.5225L58.8712 35.8495Z" fill="#233063"/>
<path d="M88.1703 49.7475L86.1645 49.017L84.1611 49.7475L84.8916 47.7417L84.1611 45.7383L86.1645 46.4687L88.1703 45.7383L87.4399 47.7417L88.1703 49.7475Z" fill="white"/>
<path d="M83.9921 47.3848H78.8027V48.0986H83.9921V47.3848Z" fill="white"/>
<path d="M93.5287 47.3848H88.3394V48.0986H93.5287V47.3848Z" fill="white"/>
<path d="M11.4653 49.7494L9.46191 49.019L7.4585 49.7494L8.18658 47.7436L7.4585 45.7402L9.46191 46.4707L11.4653 45.7402L10.7372 47.7436L11.4653 49.7494Z" fill="white"/>
<path d="M7.28702 47.3867H2.09766V48.1005H7.28702V47.3867Z" fill="white"/>
<path d="M16.8236 47.3867H11.6343V48.1005H16.8236V47.3867Z" fill="white"/>
<path d="M9.41401 34.4978L9.08328 35.7327L5.90447 34.8833L5.74505 35.4853L16.7353 38.419L16.8471 38.0026L17.1445 38.0811L16.564 40.2511L16.2665 40.1726L16.3784 39.7562L5.38815 36.8225L5.22873 37.4244L8.40755 38.2739L8.07682 39.5087L4.60059 38.5808L5.93778 33.5723L9.41401 34.5002V34.4978Z" fill="white"/>
<path d="M20.2164 31.0048L19.2123 33.0153L18.9363 32.8773L19.129 32.4919L13.8706 29.8675L13.252 31.1047L18.5104 33.7291L18.7031 33.3437L18.9791 33.4817L17.975 35.4922L17.699 35.3542L17.8917 34.9688L7.71287 29.8865L7.52014 30.2719L7.24414 30.1339L8.24823 28.1234L8.52423 28.2614L8.3315 28.6468L12.976 30.9667L13.5946 29.7294L8.95013 27.4096L8.75741 27.795L8.4814 27.657L9.48549 25.6465L9.76149 25.7845L9.56877 26.1699L19.7476 31.2522L19.9404 30.8668L20.2164 31.0048Z" fill="white"/>
<path d="M23.5498 26.4939L20.923 29.9225L20.678 29.7346L20.9397 29.3919L11.9077 22.4752L11.646 22.8178L11.4009 22.6298L14.0277 19.2012L16.8829 21.3878L16.043 22.4847L13.4305 20.4836L12.7476 21.3759L16.8686 24.5309L17.8656 23.227L18.1107 23.415L17.1137 24.7189L21.7796 28.2903L22.4625 27.398L19.85 25.397L20.6899 24.3001L23.5475 26.4867L23.5498 26.4939Z" fill="white"/>
<path d="M31.9419 19.584L30.0931 20.8617L29.9171 20.6071L30.2716 20.362L25.6271 13.638L29.653 21.1639L28.7441 21.792L22.986 15.4629L27.6329 22.187L27.9874 21.9419L28.1635 22.1965L27.0975 22.9341L26.9215 22.6795L27.276 22.4344L20.8089 13.0764L20.4544 13.3215L20.2783 13.0669L21.7845 12.0248L28.0731 19.0296L23.6189 10.759L25.1251 9.7168L25.3011 9.97139L24.9466 10.2165L31.4137 19.5744L31.7682 19.3294L31.9443 19.584H31.9419Z" fill="white"/>
<path d="M36.4791 15.781C36.855 16.6637 36.303 17.7535 35.2537 18.1984C34.2044 18.6433 33.0362 18.284 32.6626 17.3989L29.2768 9.42097C28.9033 8.53823 29.4529 7.44848 30.5022 7.00354C31.5515 6.55861 32.7174 6.91789 33.0933 7.80063L36.4791 15.781ZM35.5012 17.0159L31.5277 7.64835C31.3802 7.30096 30.9733 7.13917 30.6235 7.28669C30.2738 7.43421 30.1072 7.84108 30.2547 8.18846L34.2282 17.556C34.3758 17.9034 34.7826 18.0651 35.1324 17.9176C35.4822 17.7701 35.6487 17.3632 35.5012 17.0159Z" fill="white"/>
<path d="M42.7608 15.8947L38.6302 16.8227L38.5636 16.5229L38.9847 16.4277L36.4912 5.32801L36.07 5.42318L36.0034 5.12338L38.1948 4.63086L38.2614 4.93066L37.8403 5.02583L40.3338 16.1255L41.3451 15.8971L40.6241 12.6873L41.9732 12.3852L42.7632 15.8947H42.7608Z" fill="white"/>
<path d="M48.036 3.83428L47.6053 3.85332L48.1312 15.5264L47.0271 15.5764L44.5193 6.34212L44.9262 15.3622L45.3568 15.3432L45.3711 15.6501L44.0767 15.7096L44.0625 15.4027L44.4931 15.3837L43.9816 4.01987L43.5509 4.0389L43.5366 3.73197L45.2807 3.65345L47.5363 11.886L47.1747 3.87473L46.744 3.89376L46.7297 3.58683L48.0241 3.52734L48.0384 3.83428H48.036Z" fill="white"/>
<path d="M54.1862 16.1249L51.9591 15.8418L51.9972 15.5349L52.4255 15.5896L52.5564 12.1014L51.3215 11.9444L50.5387 15.3516L50.967 15.4064L50.9289 15.7133L49.644 15.5491L49.6821 15.2422L50.1104 15.2969L52.7848 3.85938L54.1553 4.03307L53.796 15.7656L54.2243 15.8204L54.1862 16.1273V16.1249ZM52.5778 11.7921L52.83 5.2965L51.3786 11.6399L52.5778 11.7921Z" fill="white"/>
<path d="M59.994 17.8535L59.4182 17.6703C58.6782 17.4347 58.3808 16.9446 58.6449 16.1118L59.9345 12.0645C60.0487 11.7052 59.8464 11.3174 59.4848 11.2032L58.909 11.02L57.1268 16.6186L57.5385 16.7494L57.4457 17.0445L55.3066 16.3616L55.3994 16.0666L55.8111 16.1974L59.2635 5.3595L58.8519 5.22863L58.9447 4.93359L61.2503 5.66881C62.3376 6.0162 62.9872 7.04884 62.6945 7.96251L61.9926 10.1658C61.7785 10.8344 61.1146 11.2698 60.3556 11.3174C60.9433 11.8099 61.2384 12.5332 61.0242 13.2018L59.8179 16.9898C59.718 17.2991 59.7608 17.4561 60.0558 17.5513L60.0891 17.5608L59.9963 17.8558L59.994 17.8535ZM60.4437 10.4656L61.6024 6.82518C61.7166 6.4659 61.5144 6.07806 61.1527 5.96385L60.5769 5.78064L59.0018 10.7273L59.5776 10.9105C59.9392 11.0271 60.3294 10.8272 60.4437 10.468V10.4656Z" fill="white"/>
<path d="M68.8479 21.156C68.2982 21.9436 67.0824 22.0554 66.1473 21.4035C65.2122 20.7515 64.8958 19.5714 65.4454 18.7838L70.4016 11.6719C70.9512 10.8844 72.1671 10.7725 73.1021 11.4245C74.0372 12.0764 74.3537 13.2566 73.804 14.0441L72.6977 15.6312L71.5627 14.8412L73.0998 12.6356C73.3163 12.3262 73.2354 11.8956 72.9237 11.6791C72.612 11.4625 72.1813 11.5363 71.9648 11.8456L66.1449 20.1924C65.9284 20.5017 66.0093 20.9324 66.321 21.1489C66.6327 21.3654 67.0634 21.2916 67.2799 20.9823L70.2969 16.6543L69.7306 16.2593L69.9067 16.0071L71.6079 17.192L68.8455 21.156H68.8479Z" fill="white"/>
<path d="M72.5449 27.0215L72.1214 26.5885C71.5789 26.0317 71.5456 25.4607 72.169 24.8492L75.2074 21.8797C75.4763 21.6156 75.481 21.1778 75.2145 20.9066L74.791 20.4735L70.5891 24.5827L70.8913 24.892L70.67 25.1085L69.0996 23.5024L69.3209 23.2859L69.6231 23.5952L77.7557 15.6411L77.4535 15.3318L77.6748 15.1152L79.3665 16.845C80.1636 17.6611 80.2516 18.8794 79.5664 19.548L77.9127 21.1659C77.4107 21.6561 76.6184 21.7298 75.9283 21.4158C76.2163 22.1248 76.1377 22.9028 75.6333 23.3954L72.7924 26.1745C72.5592 26.4029 72.5211 26.5599 72.74 26.7812L72.7638 26.805L72.5425 27.0215H72.5449ZM76.409 20.7043L79.1405 18.0323C79.4093 17.7682 79.4141 17.3304 79.1476 17.0592L78.7241 16.6261L75.0123 20.2546L75.4358 20.6877C75.7023 20.9589 76.1401 20.9661 76.409 20.702V20.7043Z" fill="white"/>
<path d="M77.116 30.7286C76.3166 31.2592 75.1435 30.9166 74.513 29.9648C73.8825 29.0155 74.0253 27.802 74.8247 27.2714L82.0508 22.4841C82.8503 21.9536 84.0233 22.2962 84.6514 23.2479C85.282 24.1973 85.1392 25.4107 84.3397 25.9413L77.1137 30.7286H77.116ZM75.7241 29.9934L84.2065 24.3734C84.5206 24.164 84.6062 23.7357 84.3968 23.4192C84.1875 23.1028 83.7568 23.0124 83.4451 23.2217L74.9627 28.8418C74.6486 29.0512 74.563 29.4794 74.7724 29.7959C74.9818 30.1124 75.41 30.2028 75.7241 29.9934Z" fill="white"/>
<path d="M89.167 33.0495L89.0005 32.6498L79.7496 36.502C78.8644 36.8708 77.7771 36.3116 77.3393 35.26C76.9015 34.2083 77.2703 33.0424 78.1554 32.6736L87.4063 28.8214L87.2398 28.4217L87.5253 28.3027L88.389 30.3751L88.1035 30.4941L87.9369 30.0944L77.9888 34.2368C77.6415 34.382 77.4749 34.7865 77.6224 35.1386C77.7676 35.4884 78.1721 35.6573 78.5218 35.5122L88.4699 31.3697L88.3033 30.9724L88.5889 30.8534L89.4526 32.9258L89.167 33.0448V33.0495Z" fill="white"/>
<path d="M86.3692 41.7012C85.4294 41.8939 84.4681 41.1396 84.2373 40.0237L84.116 39.4313L79.3834 40.4092L79.4715 40.8327L79.1693 40.8946L78.7148 38.696L79.017 38.6342L79.1051 39.0577L90.2452 36.7569L90.1571 36.3333L90.4593 36.2715L90.9495 38.6413C91.1803 39.7572 90.5973 40.8303 89.6575 41.0254L86.3692 41.7035V41.7012ZM85.3532 40.4996L90.1191 39.5169C90.4879 39.4408 90.7282 39.0744 90.6497 38.7008L90.5283 38.1083L84.4205 39.3694L84.5419 39.9619C84.618 40.333 84.9844 40.5757 85.3532 40.4996Z" fill="white"/>
<path d="M14.0958 55.3848L14.9119 58.3494C15.2974 59.7533 14.9643 60.3695 13.6438 60.7312C12.4684 61.0548 12.0567 60.9215 11.6665 60.1102L11.638 60.1173C11.7855 60.7978 11.469 61.2594 10.7314 61.4521L9.29192 61.8495L9.03257 60.9049L10.2722 60.5646C11.0027 60.3838 11.2168 59.9793 10.986 59.2536L10.4745 57.3906L8.23549 58.0068L7.97852 57.0717L14.0982 55.3871L14.0958 55.3848ZM11.7807 58.9847C11.8949 59.3987 12.0234 59.6486 12.1995 59.7866C12.4303 59.9793 12.6492 59.9888 13.1822 59.8413C13.8983 59.6438 14.0911 59.5225 14.1648 59.2155C14.2005 59.0585 14.1743 58.8182 14.0911 58.516L13.5486 56.5435L11.2834 57.1669L11.7831 58.9847H11.7807Z" fill="white"/>
<path d="M14.4056 64.5784L15.8189 67.3289L15.1503 67.6715L13.737 64.921L11.9001 65.8632L13.3872 68.7589L12.6591 69.1325L10.7295 65.3731L16.3757 62.4727L18.2982 66.2154L17.5701 66.5889L16.0926 63.7099L14.408 64.576L14.4056 64.5784Z" fill="white"/>
<path d="M16.3397 72.2998L15.0739 72.7661L14.4243 71.9691L20.7463 69.6777L21.6409 70.777L18.1385 76.5279L17.5008 75.7451L18.2075 74.5935L16.3373 72.2998H16.3397ZM20.6154 70.7199L17.0725 72.0238L18.6358 73.9415L20.6154 70.7199Z" fill="white"/>
<path d="M21.8884 78.7654L24.2891 80.7474L23.7324 81.4231L20.5845 78.8225L24.627 73.9258L25.3765 74.5444L21.8907 78.7654H21.8884Z" fill="white"/>
<path d="M32.9951 82.5357L35.8622 83.6968L35.5791 84.394L32.712 83.2328L31.9363 85.1458L34.9533 86.3664L34.6464 87.1255L30.73 85.5384L33.1117 79.6543L37.0115 81.2342L36.7045 81.9932L33.7065 80.7774L32.9951 82.5333V82.5357Z" fill="white"/>
<path d="M42.5483 84.3267C42.6268 83.9056 42.6268 83.7509 42.5602 83.5844C42.4531 83.3226 42.1962 83.1965 41.4467 83.0585C40.1547 82.8182 39.8834 82.9229 39.7312 83.7462C39.6384 84.2411 39.7145 84.5076 40.0048 84.6693C40.1713 84.7669 40.2522 84.7931 41.2183 85.0215C42.3128 85.2832 42.6459 85.4141 42.9052 85.683C43.2026 86.0089 43.2621 86.4182 43.1241 87.1653C42.9552 88.0742 42.7149 88.4834 42.2533 88.669C41.8464 88.8261 41.3848 88.807 40.188 88.5858C39.2053 88.4025 38.8698 88.2812 38.5272 87.9862C38.3202 87.803 38.1703 87.4651 38.1632 87.1344C38.1584 86.8441 38.1822 86.6632 38.2702 86.1469L39.2053 86.3206C39.1006 86.8821 39.103 87.0273 39.1792 87.2438C39.2862 87.5555 39.448 87.6221 40.4949 87.8172C41.8155 88.0623 41.9963 87.9695 42.1795 86.9773C42.2676 86.5086 42.2033 86.2754 41.9606 86.1231C41.8559 86.0581 41.4459 85.9368 40.7305 85.7591C39.6074 85.4926 39.4837 85.4403 39.1934 85.2309C38.7437 84.8954 38.6176 84.4171 38.7723 83.5939C38.9055 82.8729 39.1411 82.4423 39.5146 82.2614C39.9405 82.0497 40.4236 82.0521 41.5395 82.2614C42.7744 82.4922 43.2359 82.7135 43.4572 83.1894C43.5857 83.4844 43.6071 83.8366 43.5191 84.3148L43.4834 84.5028L42.5483 84.3291V84.3267Z" fill="white"/>
<path d="M48.9127 89.2291L47.942 89.2363L47.9063 83.7638L45.9647 83.7757L45.96 82.9001L50.8424 82.8691L50.8472 83.7543H48.877L48.9127 89.2291Z" fill="white"/>
<path d="M54.1497 87.4827L53.9713 88.8199L52.9624 89.0222L53.888 82.3624L55.2775 82.084L58.7276 87.8658L57.7378 88.0633L57.0478 86.8998L54.1449 87.4827H54.1497ZM54.7493 82.9643L54.2473 86.7047L56.6742 86.2193L54.7493 82.9643Z" fill="white"/>
<path d="M63.4818 86.1065L62.5824 86.4706L60.529 81.3978L58.7302 82.1259L58.4019 81.3145L62.9274 79.4824L63.2605 80.3033L61.4308 81.0338L63.4841 86.1065H63.4818Z" fill="white"/>
<path d="M67.1457 80.1714L69.7369 78.4821L70.1485 79.1126L67.5574 80.8019L68.6852 82.5317L71.4119 80.752L71.8592 81.4372L68.3211 83.7452L64.8521 78.4274L68.3759 76.1289L68.8232 76.8142L66.1131 78.582L67.1481 80.169L67.1457 80.1714Z" fill="white"/>
<path d="M78.5906 75.1375L77.9482 75.8656L73.1919 71.6636L73.8343 70.9355L78.5906 75.1375Z" fill="white"/>
<path d="M83.9774 67.3609L83.128 68.748L78.6524 68.6219C78.4145 68.61 78.1599 68.5886 77.2724 68.5244L76.8275 68.4863L76.8084 68.5172L77.0892 68.679L77.3771 68.8456C77.3985 68.8456 77.6817 69.0217 77.9505 69.1858L81.5219 71.3725L81.0199 72.1933L75.6045 68.8789L76.4492 67.4989L80.456 67.6416C80.9033 67.6583 81.1412 67.6702 82.1882 67.7297L82.7568 67.7654L82.7711 67.7416L82.4951 67.5726L82.2143 67.4132C82.1691 67.3966 81.9003 67.2324 81.648 67.0777L78.0505 64.8768L78.5573 64.0488L83.9727 67.3633L83.9774 67.3609Z" fill="white"/>
<path d="M85.1433 58.2312L85.3503 58.3002C86.1997 58.5833 86.4972 58.7737 86.6946 59.1401C86.8279 59.3757 86.8707 59.7516 86.8112 60.1133C86.7851 60.3441 86.6399 60.839 86.4377 61.4433C86.1355 62.3451 85.9642 62.6806 85.6549 62.978C85.2242 63.3968 84.7031 63.4824 83.8608 63.273C83.4873 63.1874 82.7782 62.9709 82.181 62.7734C80.7724 62.3023 80.4155 62.0834 80.1657 61.5385C79.8945 60.9675 79.9444 60.4916 80.4346 59.0188C80.713 58.1884 80.8533 57.9147 81.1484 57.6625C81.4505 57.3913 81.9074 57.3151 82.4094 57.4317C82.6045 57.4769 82.7164 57.5031 83.0994 57.6221L82.7925 58.5429C81.7123 58.2027 81.5648 58.2835 81.2007 59.3757C80.6606 60.9912 80.7439 61.2197 82.0097 61.6432C83.9132 62.2785 84.3391 62.3903 84.696 62.3713C85.1481 62.3427 85.336 62.1048 85.6501 61.1649C86.1117 59.7849 86.0475 59.5517 85.1266 59.2448C85.0457 59.2186 84.9744 59.1948 84.834 59.1568L85.1409 58.236L85.1433 58.2312Z" fill="white"/>
<path d="M87.8296 55.7247L87.6631 56.6145L86.6709 56.4266L86.8375 55.5391L87.8296 55.727V55.7247Z" fill="white"/>
<path d="M26.4535 46.9165H28.3094V47.3686H26.4535V48.6083H28.407V49.0984H25.8706V45.2891H28.3951V45.7792H26.4535V46.9165Z" fill="black"/>
<path d="M31.455 46.3651C31.455 46.1081 31.4383 46.0177 31.3812 45.9249C31.2908 45.7821 31.1243 45.7369 30.6674 45.7369C29.8799 45.7369 29.73 45.8273 29.73 46.3318C29.73 46.6339 29.8037 46.7838 29.9917 46.8457C30.1011 46.8861 30.1511 46.8909 30.7459 46.9195C31.4193 46.9528 31.6311 46.9932 31.8143 47.1241C32.026 47.2835 32.1046 47.519 32.1046 47.9759C32.1046 48.5303 32.007 48.7991 31.7572 48.9586C31.5335 49.0966 31.2599 49.1346 30.5294 49.1346C29.9298 49.1346 29.7181 49.1013 29.4849 48.9633C29.3421 48.8777 29.216 48.6945 29.1756 48.5017C29.1423 48.3304 29.1351 48.221 29.1304 47.9069H29.7014C29.7014 48.2495 29.7181 48.3352 29.7871 48.4541C29.8846 48.6254 29.9869 48.6492 30.627 48.6492C31.4312 48.6492 31.5288 48.5755 31.5288 47.9687C31.5288 47.6832 31.4669 47.5524 31.3051 47.4881C31.2369 47.4612 30.9815 47.4342 30.5389 47.4072C29.8489 47.3739 29.768 47.3549 29.5729 47.2645C29.2708 47.1169 29.1446 46.8481 29.1446 46.346C29.1446 45.9059 29.2351 45.6275 29.4349 45.4776C29.6633 45.3063 29.9489 45.2539 30.6294 45.2539C31.3836 45.2539 31.681 45.3348 31.8619 45.5918C31.9713 45.7512 32.0213 45.9582 32.0213 46.2485V46.3627H31.4502L31.455 46.3651Z" fill="black"/>
<path d="M34.4529 49.0984H33.87V45.8149H32.7041V45.2891H35.6331V45.8197L34.4505 45.8149V49.0984H34.4529Z" fill="black"/>
<path d="M36.3896 45.2895H38.205C38.7428 45.2895 39.0616 45.387 39.2781 45.6202C39.5398 45.901 39.6255 46.2317 39.6255 46.9455C39.6255 47.9401 39.5922 48.2542 39.4494 48.5206C39.3067 48.8062 39.0949 48.9656 38.7689 49.0393C38.6095 49.0727 38.4144 49.0964 38.2717 49.0964H36.3872V45.2871L36.3896 45.2895ZM38.1027 48.5968C38.4858 48.5968 38.7309 48.523 38.8498 48.3636C38.9974 48.1685 39.0378 47.9234 39.0378 47.2263C39.0378 46.4435 39.0045 46.227 38.8617 46.0318C38.7428 45.8653 38.5429 45.7987 38.1646 45.7987H36.9701V48.5968H38.1003H38.1027Z" fill="black"/>
<path d="M57.2563 49.0984H56.6686V45.7792L55.6859 46.8023L55.3267 46.4359L56.4735 45.2891H57.2563V49.0984Z" fill="black"/>
<path d="M59.5925 48.0706C59.5925 48.2991 59.6092 48.3895 59.6663 48.4823C59.7519 48.6131 59.8709 48.6369 60.461 48.6369C61.2652 48.6369 61.3342 48.5751 61.3342 47.8208V47.2545H61.3223C61.151 47.5567 60.9916 47.6138 60.2992 47.6138C59.3165 47.6138 59.0477 47.3735 59.0477 46.4955C59.0477 45.4962 59.3213 45.2559 60.4634 45.2559C61.308 45.2559 61.6221 45.3748 61.8053 45.7698C61.9076 45.9982 61.9314 46.2718 61.9314 47.2831C61.9314 48.2943 61.9029 48.4989 61.7554 48.7345C61.5602 49.0438 61.2533 49.1342 60.4372 49.1342C59.7638 49.1342 59.4997 49.0819 59.2832 48.9177C59.1119 48.7868 59.0215 48.5346 59.0215 48.2158C59.0215 48.192 59.0215 48.1301 59.0262 48.073H59.5925V48.0706ZM59.6211 46.4146C59.6211 47.0546 59.7067 47.1284 60.4372 47.1284C60.9678 47.1284 61.1843 47.0761 61.27 46.9404C61.3223 46.8548 61.339 46.7525 61.339 46.5241C61.339 45.8269 61.2486 45.7484 60.4372 45.7484C59.7234 45.7484 59.6211 45.834 59.6211 46.417V46.4146Z" fill="black"/>
<path d="M65.1819 46.3123C65.1866 46.2671 65.1867 46.2219 65.1867 46.2028C65.1867 45.8317 65.0605 45.7508 64.4776 45.7508C63.6448 45.7508 63.5306 45.8317 63.5306 46.4122V47.1213H63.5425C63.7257 46.8239 63.8732 46.7667 64.5252 46.7667C65.0962 46.7667 65.3818 46.8286 65.5697 47.0071C65.7458 47.1736 65.8267 47.452 65.8267 47.8922C65.8267 48.4347 65.7125 48.7773 65.4722 48.9439C65.2771 49.0866 65.0153 49.1318 64.411 49.1318C63.6853 49.1318 63.395 49.0509 63.1713 48.7892C63.0238 48.6179 62.9667 48.4513 62.9429 48.0706C62.9397 47.9977 62.9342 47.7256 62.9263 47.2545C62.9421 46.3821 62.9897 45.8721 63.069 45.7246C63.257 45.382 63.6068 45.2559 64.3539 45.2559C65.0391 45.2559 65.3699 45.3296 65.5531 45.5295C65.6958 45.677 65.7648 45.8959 65.7648 46.1909V46.3099H65.1819V46.3123ZM63.5996 47.4211C63.5306 47.5067 63.5092 47.6209 63.5092 47.8612C63.5092 48.5513 63.6115 48.6441 64.3943 48.6441C65.1771 48.6441 65.2556 48.5703 65.2556 47.954C65.2556 47.6685 65.2271 47.4972 65.1652 47.4068C65.0843 47.3045 64.8559 47.2593 64.3658 47.2593C63.9256 47.2593 63.7043 47.3116 63.5996 47.4258V47.4211Z" fill="black"/>
<path d="M67.3684 48.0706C67.3684 48.2991 67.3851 48.3895 67.4422 48.4823C67.5278 48.6131 67.6468 48.6369 68.2369 48.6369C69.0411 48.6369 69.1101 48.5751 69.1101 47.8208V47.2545H69.0982C68.9269 47.5567 68.7675 47.6138 68.0751 47.6138C67.0924 47.6138 66.8235 47.3735 66.8235 46.4955C66.8235 45.4962 67.0972 45.2559 68.2392 45.2559C69.0839 45.2559 69.398 45.3748 69.5812 45.7698C69.6835 45.9982 69.7073 46.2718 69.7073 47.2831C69.7073 48.2943 69.6788 48.4989 69.5312 48.7345C69.3361 49.0438 69.0292 49.1342 68.2131 49.1342C67.5397 49.1342 67.2756 49.0819 67.0591 48.9177C66.8878 48.7868 66.7974 48.5346 66.7974 48.2158C66.7974 48.192 66.7974 48.1301 66.8021 48.073H67.3684V48.0706ZM67.397 46.4146C67.397 47.0546 67.4826 47.1284 68.2131 47.1284C68.7437 47.1284 68.9602 47.0761 69.0458 46.9404C69.0982 46.8548 69.1148 46.7525 69.1148 46.5241C69.1148 45.8269 69.0244 45.7484 68.2131 45.7484C67.4993 45.7484 67.397 45.834 67.397 46.417V46.4146Z" fill="black"/>
</svg>
