<svg width="160" height="160" viewBox="0 0 160 160" fill="none" xmlns="http://www.w3.org/2000/svg">
<g clip-path="url(#clip0_5453_4669)">
<path d="M81.8764 33.4677L82.0437 33.9096L97.3676 28.0262L82.7444 35.4783L82.959 35.9012L97.5823 28.4491L83.8175 37.3879L84.0764 37.7856L97.8379 28.8468L85.0832 39.1743L85.3831 39.5436L98.1378 29.2161L86.532 40.8188L86.8665 41.1534L98.4724 29.5507L88.1449 42.3054L88.511 42.6021L98.8417 29.8474L89.8998 43.6121L90.2975 43.871L99.2362 30.1062L91.7873 44.7295L92.207 44.9441L99.6591 30.3209L93.7757 45.6417L94.2176 45.8121L100.101 30.4913L95.8526 46.3424L96.3103 46.4655L100.559 30.6144L97.9894 46.8221L98.4566 46.8947L101.026 30.687L100.167 47.0746L100.641 47.0999L101.499 30.7122L102.358 47.0999L102.831 47.0746L101.97 30.687L104.539 46.8947L105.006 46.8221L102.44 30.6144L106.685 46.4655L107.143 46.3424L102.898 30.4913L108.778 45.8121L109.22 45.6417L103.339 30.3209L110.788 44.9441L111.211 44.7295L103.759 30.1062L112.698 43.871L113.096 43.6121L104.157 29.8474L114.484 42.6021L114.854 42.3054L104.526 29.5507L116.129 41.1534L116.463 40.8188L104.861 29.2161L117.612 39.5436L117.912 39.1743L105.157 28.8468L118.922 37.7856L119.181 37.3879L105.413 28.4491L120.04 35.9012L120.254 35.4783L105.628 28.0262L120.952 33.9096L121.122 33.4677L105.801 27.5875L121.652 31.8327L121.776 31.3751L105.924 27.1298L122.132 29.6959L122.205 29.2288L105.997 26.6627L122.385 27.5212L122.41 27.0477L106.022 26.1892L122.41 25.3307L122.385 24.8572L105.997 25.7158L122.205 23.1497L122.132 22.6794L105.924 25.2486L121.776 21.0002L121.652 20.5425L105.801 24.791L121.122 18.9076L120.952 18.4657L105.628 24.3491L120.254 16.897L120.04 16.4772L105.416 23.9261L119.181 14.9874L118.922 14.5929L105.157 23.5284L117.912 13.2009L117.612 12.8348L104.861 23.1623L116.463 11.5565L116.129 11.2219L104.526 22.8277L114.854 10.073L114.484 9.77631L104.157 22.531L113.096 8.76629L112.698 8.50747L103.759 22.2722L111.211 7.64895L110.788 7.43432L103.339 22.0544L109.22 6.73361L108.778 6.56633L102.898 21.8871L107.143 6.03291L106.685 5.91297L102.44 21.764L105.006 5.55315L104.539 5.48055L101.97 21.6914L102.831 5.30064L102.358 5.27539L101.499 21.6662L100.641 5.27539L100.167 5.30064L101.026 21.6914L98.4566 5.48055L97.9894 5.55315L100.559 21.764L96.3103 5.91297L95.8526 6.03291L100.101 21.8871L94.2176 6.56633L93.7757 6.73361L99.6591 22.0544L92.207 7.43432L91.7873 7.64895L99.2362 22.2722L90.2975 8.50747L89.8998 8.76629L98.8417 22.531L88.511 9.77631L88.1449 10.073L98.4724 22.8277L86.8665 11.2219L86.532 11.5565L98.1378 23.1623L85.3831 12.8348L85.0832 13.2009L97.8379 23.5284L84.0764 14.5929L83.8175 14.9874L97.5823 23.9261L82.959 16.4772L82.7444 16.897L97.3676 24.3491L82.0437 18.4657L81.8764 18.9076L97.1972 24.791L81.343 20.5425L81.223 21.0002L97.0709 25.2486L80.8632 22.6794L80.7906 23.1497L96.9984 25.7158L80.6107 24.8572L80.5854 25.3307L96.9763 26.1892L80.5854 27.0477L80.6107 27.5212L96.9984 26.6627L80.7906 29.2288L80.8632 29.6959L97.0709 27.1298L81.223 31.3751L81.343 31.8327L97.1972 27.5875L81.8764 33.4677Z" fill="#E9E9E9"/>
<path d="M36.4917 28.6263L36.5422 29.0966L52.8636 27.3827L36.8105 30.7947L36.9083 31.2555L52.9646 27.8435L37.3534 32.9158L37.4986 33.3671L53.1066 28.2949L38.114 34.9705L38.3066 35.4029L53.2991 28.7273L39.0894 36.9338L39.3261 37.3441L53.539 29.1376L40.2604 38.7834L40.5381 39.1684L53.8168 29.5196L41.6207 40.5036L41.9364 40.8539L54.1324 29.8731L43.1515 42.0691L43.5019 42.3847L54.4859 30.1887L44.837 43.4674L45.2221 43.7451L54.8678 30.4664L46.6614 44.6794L47.0717 44.9161L55.2782 30.7032L48.6025 45.6957L49.0349 45.8883L55.7106 30.8957L50.6384 46.5037L51.0897 46.6521L56.1619 31.0409L52.7468 47.0971L53.2108 47.195L56.6228 31.1419L54.9089 47.4633L55.3792 47.5138L57.093 31.1924V47.6021H57.5665V31.1924L59.2835 47.5138L59.7538 47.4633L58.0399 31.1419L61.4519 47.195L61.9128 47.0971L58.5008 31.0409L63.573 46.6521L64.0243 46.5037L58.9521 30.8957L65.6278 45.8883L66.0602 45.6957L59.3845 30.7032L67.591 44.9161L68.0013 44.6794L59.7949 30.4664L69.4406 43.7451L69.8257 43.4674L60.1768 30.1887L71.1576 42.3847L71.5111 42.0691L60.5303 29.8731L72.7263 40.8539L73.042 40.5036L60.8459 29.5196L74.1246 39.1684L74.4023 38.7834L61.1237 29.1376L75.3366 37.3441L75.5733 36.9338L61.3636 28.7273L76.353 35.4029L76.5455 34.9705L61.5529 28.2949L77.161 33.3671L77.3093 32.9158L61.6981 27.8435L77.7544 31.2555L77.8522 30.7947L61.7991 27.3827L78.1205 29.0966L78.171 28.6263L61.8496 26.9093H78.2594V26.4358H61.8496L78.171 24.7219L78.1205 24.2516L61.7991 25.9655L77.8522 22.5535L77.7544 22.0927L61.6981 25.5047L77.3093 20.4325L77.161 19.9811L61.5529 25.0533L76.5455 18.3777L76.353 17.9453L61.3604 24.6209L75.5733 16.4145L75.3366 16.0042L61.1237 24.2106L74.4023 14.5649L74.1246 14.1798L60.8459 23.8287L73.042 12.8447L72.7263 12.4943L60.5303 23.4752L71.5111 11.2791L71.1576 10.9635L60.1768 23.1596L69.8257 9.88088L69.4406 9.60313L59.7949 22.8818L68.0013 8.66885L67.591 8.43213L59.3845 22.6451L66.0602 7.65252L65.6278 7.45998L58.9521 22.4525L64.0243 6.84134L63.573 6.69615L58.5008 22.3042L61.9128 6.25111L61.4519 6.15326L58.0399 22.2063L59.7538 5.88497L59.2835 5.83447L57.5665 22.1558V5.74609H57.093V22.1558L55.3792 5.83447L54.9089 5.88497L56.6228 22.2063L53.2108 6.15326L52.7468 6.25111L56.1619 22.3042L51.0897 6.69615L50.6384 6.84134L55.7106 22.4525L49.0349 7.45998L48.6025 7.65252L55.2782 22.6451L47.0717 8.43213L46.6614 8.66885L54.8678 22.8818L45.2221 9.60313L44.837 9.88088L54.4859 23.1596L43.5019 10.9635L43.1515 11.2791L54.1324 23.4752L41.9364 12.4943L41.6207 12.8447L53.8168 23.8287L40.5381 14.1798L40.2604 14.5649L53.539 24.2106L39.3261 16.0042L39.0894 16.4145L53.2991 24.6209L38.3066 17.9453L38.114 18.3777L53.1066 25.0533L37.4986 19.9811L37.3534 20.4325L52.9646 25.5047L36.9083 22.0927L36.8105 22.5535L52.8636 25.9655L36.5422 24.2516L36.4917 24.7219L52.8131 26.4358H36.4033V26.9093H52.8131L36.4917 28.6263Z" fill="#E9E9E9"/>
<path d="M6.16567 63.4368L6.28877 63.8945L22.143 59.6461L6.81903 65.5263L6.98947 65.9682L22.3103 60.0879L7.68702 67.5369L7.90165 67.9598L22.5281 60.5077L8.76333 69.4465L9.01899 69.8442L22.7837 60.9054L10.029 71.2361L10.3289 71.6022L23.0804 61.2747L11.4778 72.8805L11.8123 73.2151L23.4182 61.6093L13.0875 74.364L13.4568 74.6607L23.7843 61.906L14.8456 75.6707L15.2433 75.9296L24.182 62.1648L16.7299 76.7881L17.1528 77.0027L24.6018 62.3794L18.7215 77.7003L19.1634 77.8707L25.0437 62.5499L20.7984 78.401L21.2561 78.5241L25.5013 62.673L22.9352 78.8807L23.4024 78.9565L25.9716 62.7456L25.11 79.1364L25.5834 79.1585L26.4419 62.7708L27.3004 79.1585L27.7739 79.1364L26.9154 62.7456L29.4846 78.9565L29.9518 78.8807L27.3825 62.673L31.6309 78.5241L32.0886 78.401L27.8402 62.5499L33.7236 77.8707L34.1655 77.7003L28.2821 62.3794L35.7341 77.0027L36.1539 76.7881L28.705 62.1648L37.6437 75.9296L38.0414 75.6707L29.1027 61.906L39.4302 74.6607L39.7963 74.364L29.4688 61.6093L41.0747 73.2151L41.4092 72.8805L29.8034 61.2747L42.5581 71.6022L42.858 71.2361L30.1033 60.9054L43.8648 69.8442L44.1237 69.4465L30.3589 60.5077L44.9822 67.9598L45.1968 67.5369L30.5736 60.0879L45.8975 65.9682L46.068 65.5263L30.744 59.6461L46.5982 63.8945L46.7213 63.4368L30.8702 59.1884L47.078 61.7545L47.1506 61.2874L30.9428 58.7213L47.3305 59.5798L47.3557 59.1063L30.9681 58.2478L47.3557 57.3893L47.3305 56.9158L30.9428 57.7744L47.1506 55.2083L47.078 54.7411L30.8702 57.3072L46.7213 53.0588L46.5982 52.6011L30.744 56.8496L46.068 50.9693L45.8975 50.5274L30.5736 56.4077L45.1968 48.9587L44.9822 48.5358L30.3589 55.9879L44.1237 47.0492L43.8648 46.6515L30.1033 55.5902L42.858 45.2595L42.5581 44.8934L29.8034 55.2209L41.4092 43.6151L41.0747 43.2805L29.4688 54.8863L39.7963 42.1316L39.4302 41.8349L29.1027 54.5896L38.0414 40.8249L37.6437 40.5661L28.705 54.3308L36.1539 39.7075L35.7341 39.4929L28.2821 54.1162L34.1655 38.7954L33.7236 38.6249L27.8402 53.9457L32.0886 38.0947L31.6309 37.9716L27.3825 53.8226L29.9518 37.6149L29.4846 37.5391L26.9154 53.75L27.7739 37.3592L27.3004 37.334L26.4419 53.7248L25.5834 37.334L25.11 37.3592L25.9716 53.75L23.4024 37.5391L22.9352 37.6149L25.5013 53.8226L21.2561 37.9716L20.7984 38.0947L25.0437 53.9457L19.1634 38.6249L18.7215 38.7954L24.6018 54.1162L17.1528 39.4929L16.7299 39.7075L24.182 54.3308L15.2433 40.5661L14.8456 40.8249L23.7843 54.5896L13.4568 41.8349L13.0875 42.1316L23.4182 54.8863L11.8123 43.2805L11.4778 43.6151L23.0804 55.2209L10.3289 44.8934L10.029 45.2595L22.7837 55.5902L9.01899 46.6515L8.76333 47.0492L22.5281 55.9879L7.90165 48.5358L7.68702 48.9587L22.3134 56.4077L6.98947 50.5274L6.81903 50.9693L22.1398 56.8496L6.28877 52.6011L6.16567 53.0588L22.0167 57.3072L5.80901 54.7411L5.73641 55.2083L21.9442 57.7744L5.5565 56.9158L5.53125 57.3893L21.9189 58.2478L5.53125 59.1063L5.5565 59.5798L21.9442 58.7213L5.73641 61.2874L5.80901 61.7545L22.0167 59.1884L6.16567 63.4368Z" fill="#E9E9E9"/>
<path d="M37.596 120.422L29.3927 106.209L39.0385 119.487L39.4204 119.21L29.7747 105.931L40.7555 118.127L41.109 117.811L30.125 105.615L42.3242 116.596L42.6399 116.243L30.4438 105.262L43.7193 114.907L44.0002 114.526L30.7216 104.88L44.9345 113.086L45.1712 112.676L30.9583 104.469L45.9508 111.145L46.1434 110.713L31.1508 104.037L46.7589 109.109L46.9041 108.658L31.296 103.586L47.3491 106.998L47.4501 106.537L31.397 103.122L47.7184 104.839L47.7657 104.368L31.4444 102.651H47.8573V102.178H31.4475L47.7657 100.464L47.7184 99.9938L31.397 101.708L47.4501 98.2957L47.3491 97.8317L31.296 101.244L46.9041 96.1747L46.7589 95.7233L31.1508 100.796L46.1434 94.1199L45.9508 93.6875L30.9583 100.363L45.1712 92.1567L44.9345 91.7463L30.7216 99.9528L44.0002 90.3071L43.7193 89.922L30.4438 99.5677L42.6399 88.5869L42.3242 88.2365L30.125 99.2174L41.109 87.0213L40.7555 86.7025L29.7747 98.9017L39.4204 85.6231L39.0385 85.3453L29.3927 98.624L37.596 84.4079L37.1889 84.1712L28.9824 98.3873L35.6581 83.3915L35.2256 83.199L28.55 98.1947L33.6191 82.5835L33.1709 82.4383L28.0987 98.0464L31.5106 81.9933L31.0467 81.8954L27.6347 97.9485L29.3517 81.6272L28.8814 81.5767L27.1644 97.898V81.4883H26.6909V97.898L24.977 81.5767L24.5036 81.6272L26.2206 97.9485L22.8086 81.8954L22.3447 81.9933L25.7567 98.0464L20.6876 82.4383L20.2362 82.5835L25.3085 98.1947L18.6328 83.199L18.2004 83.3915L24.876 98.3873L16.6696 84.1712L16.2593 84.4079L24.4657 98.624L14.8168 85.3453L14.4349 85.6231L24.0806 98.9017L13.0998 86.7025L12.7494 87.0213L23.7303 99.2174L11.5342 88.2365L11.2155 88.5869L23.4115 99.5677L10.136 89.922L9.85824 90.3071L23.1337 99.9528L8.92081 91.7463L8.68408 92.1567L22.897 100.363L7.90447 93.6875L7.71193 94.1199L22.7045 100.796L7.09645 95.7233L6.95126 96.1747L22.5593 101.244L6.50622 97.8317L6.40837 98.2957L22.4615 101.708L6.14008 99.9938L6.08958 100.464L22.4109 102.178H5.99805V102.651H22.4109L6.08958 104.368L6.14008 104.839L22.4615 103.122L6.40837 106.537L6.50622 106.998L22.5593 103.586L6.95126 108.658L7.09645 109.109L22.7045 104.037L7.71193 110.713L7.90447 111.145L22.897 104.469L8.68408 112.676L8.92081 113.086L23.1337 104.88L9.85824 114.526L10.136 114.907L23.4115 105.262L11.2155 116.243L11.5342 116.596L23.7303 105.615L12.7494 117.811L13.0998 118.127L24.0806 105.931L14.4349 119.21L14.8168 119.487L24.4657 106.209L16.2593 120.422L16.6696 120.658L24.876 106.445L18.2004 121.438L18.6328 121.63L25.3085 106.638L20.2362 122.246L20.6876 122.394L25.7567 106.783L22.3447 122.836L22.8086 122.937L26.2206 106.884L24.5036 123.205L24.977 123.253L26.6909 106.931V123.344H27.1644V106.931L28.8814 123.253L29.3517 123.205L27.6347 106.884L31.0467 122.937L31.5106 122.836L28.0987 106.783L33.1709 122.394L33.6191 122.246L28.55 106.638L35.2256 121.63L35.6581 121.438L28.9824 106.445L37.1889 120.658L37.596 120.422Z" fill="#E9E9E9"/>
<path d="M79.3891 131.969L63.0014 132.828L79.2092 130.262L79.1366 129.795L62.9288 132.361L78.7799 128.115L78.6568 127.658L62.8057 131.903L78.1266 126.023L77.9561 125.581L62.6321 131.464L77.2586 124.012L77.0439 123.589L62.4175 131.041L76.1823 122.103L75.9266 121.705L62.1619 130.644L74.9166 120.316L74.6167 119.947L61.8652 130.274L73.4678 118.672L73.1332 118.337L61.5274 129.94L71.8581 117.185L71.4888 116.888L61.1613 129.643L70.1 115.878L69.7023 115.623L60.7636 129.384L68.2157 114.761L67.7927 114.546L60.3438 129.17L66.224 113.849L65.7822 113.678L59.9019 128.999L64.1472 113.148L63.6895 113.025L59.4443 128.876L62.0103 112.668L61.5432 112.596L58.974 128.804L59.8356 112.416L59.3622 112.391L58.5037 128.778L57.6451 112.391L57.1717 112.416L58.0302 128.804L55.461 112.596L54.9938 112.668L57.5631 128.876L53.3147 113.025L52.857 113.148L57.1054 128.999L51.222 113.678L50.7801 113.849L56.6635 129.17L49.2114 114.546L48.7916 114.761L56.2406 129.384L47.3019 115.623L46.9042 115.878L55.846 129.643L45.5154 116.888L45.1492 117.185L55.4767 129.94L43.8709 118.337L43.5364 118.672L55.1422 130.274L42.3875 119.947L42.0876 120.316L54.8423 130.644L41.0807 121.705L40.8219 122.103L54.5867 131.041L39.9634 123.589L39.7488 124.012L54.372 131.464L39.0481 125.581L38.8808 126.023L54.2016 131.903L38.3474 127.658L38.2243 128.115L54.0753 132.361L37.8676 129.795L37.795 130.262L54.0027 132.828L37.6151 131.969L37.5898 132.443L53.9807 133.301L37.5898 134.16L37.6151 134.633L54.0027 133.775L37.795 136.341L37.8676 136.811L54.0753 134.242L38.2243 138.49L38.3474 138.948L54.2016 134.7L38.8808 140.583L39.0481 141.025L54.372 135.141L39.7488 142.594L39.9634 143.013L54.5867 135.564L40.8219 144.503L41.0807 144.898L54.8423 135.962L42.0876 146.29L42.3875 146.656L55.1422 136.328L43.5364 147.934L43.8709 148.269L55.4767 136.663L45.1492 149.417L45.5154 149.714L55.846 136.959L46.9042 150.724L47.3019 150.983L56.2406 137.221L48.7916 151.842L49.2114 152.056L56.6635 137.436L50.7801 152.757L51.222 152.924L57.1054 137.603L52.857 153.458L53.3147 153.578L57.5631 137.726L54.9938 153.937L55.461 154.01L58.0302 137.799L57.1717 154.19L57.6451 154.215L58.5037 137.824L59.3622 154.215L59.8356 154.19L58.974 137.799L61.5432 154.01L62.0103 153.937L59.4443 137.726L63.6895 153.578L64.1472 153.458L59.9019 137.603L65.7822 152.924L66.224 152.757L60.3438 137.436L67.7927 152.056L68.2157 151.842L60.7636 137.218L69.7023 150.983L70.1 150.724L61.1613 136.959L71.4888 149.714L71.8581 149.417L61.5274 136.663L73.1332 148.269L73.4678 147.934L61.8652 136.328L74.6167 146.656L74.9166 146.29L62.1619 135.962L75.9266 144.898L76.1823 144.503L62.4175 135.564L77.0439 143.013L77.2586 142.594L62.6353 135.141L77.9561 141.025L78.1266 140.583L62.8057 134.7L78.6568 138.948L78.7799 138.49L62.9288 134.242L79.1366 136.811L79.2092 136.341L63.0014 133.775L79.3891 134.633L79.4143 134.16L63.0267 133.301L79.4143 132.443L79.3891 131.969Z" fill="#E9E9E9"/>
<path d="M123.508 130.865L123.458 130.394L107.137 132.108L123.19 128.696L123.092 128.235L107.039 131.647L122.647 126.575L122.502 126.124L106.893 131.196L121.886 124.52L121.694 124.088L106.701 130.764L120.914 122.557L120.677 122.147L106.464 130.353L119.74 120.707L119.462 120.322L106.186 129.971L118.383 118.99L118.064 118.637L105.868 129.618L116.849 117.422L116.498 117.106L105.517 129.302L115.163 116.023L114.781 115.746L105.132 129.024L113.339 114.811L112.928 114.575L104.722 128.788L111.398 113.795L110.965 113.603L104.29 128.595L109.362 112.987L108.914 112.839L103.841 128.45L107.253 112.394L106.789 112.296L103.377 128.349L105.094 112.028L104.621 111.977L102.907 128.298V111.889H102.434V128.298L100.717 111.977L100.246 112.028L101.963 128.349L98.5513 112.296L98.0873 112.394L101.499 128.45L96.4271 112.839L95.9789 112.987L101.048 128.595L94.3723 113.603L93.9399 113.795L100.619 128.788L92.4123 114.575L92.0019 114.811L100.208 129.024L90.5595 115.746L90.1776 116.023L99.8233 129.302L88.8425 117.106L88.4889 117.422L99.473 129.618L87.2769 118.637L86.9581 118.99L99.1542 129.971L85.8787 120.322L85.6009 120.707L98.8764 130.353L84.6635 122.147L84.4268 122.557L98.6397 130.764L83.6471 124.088L83.4546 124.52L98.4472 131.196L82.8391 126.124L82.6939 126.575L98.302 131.647L82.2489 128.235L82.151 128.696L98.201 132.108L81.8796 130.394L81.8322 130.865L98.1536 132.582H81.7407V133.055H98.1536L81.8322 134.769L81.8796 135.239L98.201 133.525L82.151 136.937L82.2489 137.398L98.302 133.986L82.6939 139.058L82.8391 139.51L98.4472 134.437L83.4546 141.113L83.6471 141.546L98.6397 134.87L84.4268 143.076L84.6635 143.487L98.8764 135.28L85.6009 144.926L85.8787 145.311L99.1542 135.662L86.9581 146.646L87.2769 146.997L99.473 136.016L88.4889 148.212L88.8425 148.527L99.8233 136.331L90.1776 149.61L90.5595 149.888L100.208 136.609L92.0019 150.822L92.4123 151.059L100.619 136.846L93.9399 151.841L94.3723 152.031L101.048 137.038L95.9789 152.649L96.4271 152.795L101.499 137.187L98.0873 153.24L98.5513 153.338L101.963 137.284L100.246 153.606L100.717 153.656L102.434 137.335V153.745H102.907V137.335L104.621 153.656L105.094 153.606L103.377 137.284L106.789 153.338L107.253 153.24L103.841 137.187L108.914 152.795L109.362 152.649L104.29 137.038L110.965 152.031L111.398 151.841L104.722 136.846L112.928 151.059L113.339 150.822L105.132 136.609L114.781 149.888L115.163 149.61L105.517 136.331L116.498 148.527L116.849 148.212L105.868 136.016L118.064 146.997L118.383 146.646L106.186 135.662L119.462 145.311L119.74 144.926L106.464 135.28L120.677 143.487L120.914 143.076L106.701 134.87L121.694 141.546L121.886 141.113L106.893 134.437L122.502 139.51L122.647 139.058L107.039 133.986L123.092 137.398L123.19 136.937L107.137 133.525L123.458 135.239L123.508 134.769L107.187 133.055H123.6V132.582H107.187L123.508 130.865Z" fill="#E9E9E9"/>
<path d="M154.469 100.384L154.447 99.9107L138.059 100.769L154.267 98.2032L154.191 97.736L137.984 100.302L153.835 96.0537L153.712 95.596L137.86 99.8444L153.181 93.9642L153.011 93.5223L137.69 99.4026L152.313 91.9536L152.099 91.5307L137.475 98.9828L151.24 90.0441L150.981 89.6464L137.217 98.5851L149.971 88.2544L149.675 87.8883L136.92 98.2158L148.526 86.61L148.191 86.2754L136.585 97.8812L146.913 85.1265L146.547 84.8298L136.216 97.5845L145.155 83.8198L144.757 83.561L135.821 97.3257L143.27 82.7024L142.847 82.4878L135.399 97.1111L141.279 81.7903L140.837 81.6198L134.957 96.9406L139.205 81.0895L138.747 80.9665L134.499 96.8175L137.065 80.6098L136.598 80.534L134.032 96.7449L134.89 80.3541L134.417 80.332L133.558 96.7197L132.7 80.332L132.226 80.3541L133.085 96.7449L130.519 80.534L130.052 80.6098L132.618 96.8175L128.369 80.9665L127.912 81.0895L132.16 96.9406L126.28 81.6198L125.838 81.7903L131.718 97.1111L124.269 82.4878L123.846 82.7024L131.295 97.3257L122.36 83.561L121.962 83.8198L130.901 97.5845L120.57 84.8298L120.204 85.1265L130.531 97.8812L118.926 86.2754L118.591 86.61L130.197 98.2158L117.442 87.8883L117.145 88.2544L129.897 98.5851L116.135 89.6464L115.877 90.0441L129.641 98.9828L115.018 91.5307L114.803 91.9536L129.427 99.4026L114.106 93.5223L113.935 93.9642L129.256 99.8444L113.405 95.596L113.282 96.0537L129.133 100.302L112.925 97.736L112.85 98.2032L129.057 100.769L112.67 99.9107L112.645 100.384L129.035 101.243L112.645 102.101L112.67 102.575L129.057 101.716L112.85 104.282L112.925 104.749L129.133 102.183L113.282 106.432L113.405 106.889L129.256 102.641L113.935 108.521L114.106 108.963L129.427 103.083L114.803 110.532L115.018 110.955L129.641 103.503L115.877 112.441L116.135 112.839L129.897 103.9L117.145 114.231L117.442 114.597L130.197 104.27L118.591 115.875L118.926 116.21L130.531 104.604L120.204 117.359L120.57 117.656L130.901 104.901L121.962 118.666L122.36 118.924L131.295 105.16L123.846 119.783L124.269 119.998L131.718 105.374L125.838 120.695L126.28 120.866L132.16 105.545L127.912 121.396L128.369 121.519L132.618 105.668L130.052 121.876L130.519 121.951L133.085 105.74L132.226 122.131L132.7 122.157L133.558 105.766L134.417 122.157L134.89 122.131L134.032 105.74L136.598 121.951L137.065 121.876L134.499 105.668L138.747 121.519L139.205 121.396L134.957 105.545L140.837 120.866L141.279 120.695L135.399 105.374L142.847 119.998L143.27 119.783L135.821 105.16L144.757 118.924L145.155 118.666L136.216 104.901L146.547 117.656L146.913 117.359L136.585 104.604L148.191 116.21L148.526 115.875L136.92 104.27L149.675 114.597L149.971 114.231L137.217 103.9L150.981 112.839L151.24 112.441L137.475 103.503L152.099 110.955L152.313 110.532L137.69 103.083L153.011 108.963L153.181 108.521L137.86 102.641L153.712 106.889L153.835 106.432L137.984 102.183L154.191 104.749L154.267 104.282L138.059 101.716L154.447 102.575L154.469 102.101L138.081 101.243L154.469 100.384Z" fill="#E9E9E9"/>
<path d="M122.404 39.0692L130.61 53.2822L120.961 40.0035L120.579 40.2813L130.225 53.5599L119.244 41.3639L118.894 41.6795L129.875 53.8756L117.679 42.8947L117.36 43.2482L129.556 54.2291L116.281 44.5833L116.003 44.9653L129.281 54.611L115.065 46.4045L114.829 46.8149L129.042 55.0213L114.049 48.3457L113.856 48.7781L128.849 55.4537L113.241 50.3815L113.096 50.8329L128.704 55.9051L112.651 52.4931L112.553 52.9571L128.606 56.3659L112.285 54.652L112.234 55.1223L128.555 56.8394H112.143V57.3128H128.555L112.234 59.0267L112.285 59.497L128.606 57.7831L112.553 61.1951L112.651 61.6591L128.704 58.2439L113.096 63.3161L113.241 63.7675L128.849 58.6953L113.856 65.3709L114.049 65.8033L129.042 59.1277L114.829 67.3342L115.065 67.7445L129.281 59.538L116.003 69.1838L116.281 69.5688L129.556 59.9231L117.36 70.904L117.679 71.2543L129.875 60.2734L118.894 72.4695L119.244 72.7883L130.225 60.5891L120.579 73.8678L120.961 74.1455L130.61 60.8668L122.404 75.0829L122.814 75.3197L131.021 61.1036L124.345 76.0993L124.777 76.2918L131.453 61.2961L126.381 76.9073L126.832 77.0525L131.901 61.4444L128.489 77.4975L128.953 77.5954L132.365 61.5423L130.648 77.8637L131.122 77.9142L132.835 61.5928V78.0025H133.309V61.5928L135.026 77.9142L135.496 77.8637L133.779 61.5423L137.191 77.5954L137.655 77.4975L134.243 61.4444L139.315 77.0525L139.767 76.9073L134.695 61.2961L141.37 76.2918L141.803 76.0993L135.127 61.1036L143.333 75.3197L143.741 75.0829L135.537 60.8668L145.183 74.1455L145.565 73.8678L135.919 60.5891L146.9 72.7883L147.254 72.4695L136.273 60.2734L148.469 71.2543L148.784 70.904L136.588 59.9231L149.864 69.5688L150.145 69.1838L136.866 59.538L151.079 67.7445L151.316 67.3342L137.103 59.1277L152.095 65.8033L152.288 65.3709L137.295 58.6953L152.903 63.7675L153.052 63.3161L137.441 58.2439L153.494 61.6591L153.595 61.1951L137.542 57.7831L153.863 59.497L153.91 59.0267L137.589 57.3128H154.002V56.8394H137.592L153.91 55.1223L153.863 54.652L137.542 56.3659L153.595 52.9571L153.494 52.4931L137.441 55.9051L153.052 50.8329L152.903 50.3815L137.295 55.4537L152.288 48.7781L152.095 48.3457L137.103 55.0213L151.316 46.8149L151.079 46.4045L136.866 54.611L150.145 44.9653L149.864 44.5833L136.588 54.2291L148.784 43.2482L148.469 42.8947L136.273 53.8756L147.254 41.6795L146.9 41.3639L135.919 53.5599L145.565 40.2813L145.183 40.0035L135.537 53.2822L143.741 39.0692L143.333 38.8325L135.127 53.0455L141.803 38.0529L141.37 37.8604L134.695 52.8529L139.767 37.2449L139.315 37.0965L134.243 52.7077L137.655 36.6547L137.191 36.5537L133.779 52.6067L135.496 36.2854L135.026 36.238L133.309 52.5562V36.1465H132.835V52.5562L131.122 36.238L130.648 36.2854L132.365 52.6067L128.953 36.5537L128.489 36.6547L131.901 52.7077L126.832 37.0965L126.381 37.2449L131.453 52.8529L124.777 37.8604L124.345 38.0529L131.021 53.0455L122.814 38.8325L122.404 39.0692Z" fill="#E9E9E9"/>
<path d="M152.809 63.9897C146.569 57.6486 143.065 49.1234 142.863 40.2289C142.863 40.1089 142.857 39.9921 142.854 39.8722C142.399 27.7771 132.564 17.942 120.469 17.4844C120.349 17.4812 120.229 17.4749 120.112 17.4749C111.224 17.2729 102.696 13.7694 96.3608 7.53246C92.1566 3.39136 86.3837 0.837891 80.0174 0.837891C80.011 0.837891 80.0079 0.837891 80.0016 0.837891C79.9953 0.837891 79.9921 0.837891 79.9858 0.837891C73.6163 0.837891 67.8466 3.39136 63.6423 7.53246C57.3076 13.7694 48.7792 17.2729 39.891 17.4749C39.771 17.4749 39.6511 17.4812 39.5343 17.4844C27.4393 17.942 17.6073 27.7771 17.1496 39.8722C17.1465 39.9921 17.1402 40.1089 17.1402 40.2289C16.9382 49.1202 13.4346 57.6486 7.19457 63.9897C3.05347 68.1939 0.5 73.9637 0.5 80.33C0.5 86.6963 3.05347 92.4661 7.19141 96.6703C13.4315 103.011 16.935 111.537 17.137 120.428C17.137 120.548 17.1433 120.665 17.1465 120.785C17.601 132.883 27.4424 142.721 39.5406 143.172C39.7868 143.182 40.0362 143.188 40.2824 143.188C49.1958 143.245 57.6453 146.947 64.1947 152.992C68.3453 156.82 73.8909 159.162 79.9858 159.162C79.9921 159.162 79.9953 159.162 80.0016 159.162C80.0079 159.162 80.011 159.162 80.0174 159.162C86.1122 159.162 91.6579 156.824 95.8085 152.992C102.358 146.947 110.81 143.245 119.721 143.188C119.967 143.188 120.213 143.182 120.463 143.172C132.561 142.721 142.402 132.886 142.857 120.785C142.86 120.665 142.866 120.548 142.866 120.428C143.068 111.537 146.572 103.008 152.812 96.6703C156.95 92.4661 159.503 86.6963 159.503 80.33C159.503 73.9637 156.95 68.1939 152.812 63.9897H152.809Z" fill="#E9E9E9"/>
<path d="M80.0016 142.024C114.397 142.024 142.279 114.141 142.279 79.7463C142.279 45.3513 114.397 17.4688 80.0016 17.4688C45.6067 17.4688 17.7241 45.3513 17.7241 79.7463C17.7241 114.141 45.6067 142.024 80.0016 142.024Z" fill="black"/>
<path d="M80.0015 142.897C114.599 142.897 142.645 114.85 142.645 80.253C142.645 45.6559 114.599 17.6094 80.0015 17.6094C45.4044 17.6094 17.3579 45.6559 17.3579 80.253C17.3579 114.85 45.4044 142.897 80.0015 142.897Z" fill="#233063"/>
<path d="M80.0015 116.8C100.256 116.8 116.675 100.381 116.675 80.1265C116.675 59.8724 100.256 43.4531 80.0015 43.4531C59.7474 43.4531 43.3281 59.8724 43.3281 80.1265C43.3281 100.381 59.7474 116.8 80.0015 116.8Z" fill="#E9E9E9"/>
<path d="M80.0016 119.458C58.3839 119.458 40.7969 101.871 40.7969 80.2536C40.7969 58.6359 58.3839 41.0488 80.0016 41.0488C101.619 41.0488 119.206 58.6359 119.206 80.2536C119.206 101.871 101.619 119.458 80.0016 119.458ZM80.0016 41.9957C58.9079 41.9957 41.7438 59.1567 41.7438 80.2536C41.7438 101.35 58.9047 118.511 80.0016 118.511C101.099 118.511 118.259 101.35 118.259 80.2536C118.259 59.1567 101.099 41.9957 80.0016 41.9957Z" fill="#E9E9E9"/>
<path d="M65.3332 64.5662L64.4404 65.459L94.6687 95.6873L95.5615 94.7946L65.3332 64.5662Z" fill="#233063"/>
<path d="M94.6688 64.5666L64.4404 94.7949L65.3332 95.6877L95.5615 65.4593L94.6688 64.5666Z" fill="#233063"/>
<path d="M133.537 83.002L130.876 82.033L128.218 83.002L129.187 80.3412L128.218 77.6836L130.876 78.6526L133.537 77.6836L132.568 80.3412L133.537 83.002Z" fill="#E9E9E9"/>
<path d="M127.994 79.8672H121.11V80.8141H127.994V79.8672Z" fill="#E9E9E9"/>
<path d="M140.645 79.8672H133.761V80.8141H140.645V79.8672Z" fill="#E9E9E9"/>
<path d="M31.7835 83.002L29.1259 82.033L26.4683 83.002L27.4341 80.3412L26.4683 77.6836L29.1259 78.6526L31.7835 77.6836L30.8177 80.3412L31.7835 83.002Z" fill="#E9E9E9"/>
<path d="M26.2409 79.8691H19.3569V80.816H26.2409V79.8691Z" fill="#E9E9E9"/>
<path d="M38.8913 79.8691H32.0073V80.816H38.8913V79.8691Z" fill="#E9E9E9"/>
<path d="M29.061 62.7708L28.6223 64.4089L24.4054 63.2821L24.194 64.0807L38.7731 67.9724L38.9214 67.42L39.3159 67.5242L38.5458 70.4028L38.1513 70.2986L38.2996 69.7463L23.7205 65.8545L23.5091 66.6531L27.7259 67.7799L27.2872 69.418L22.6758 68.187L24.4496 61.543L29.061 62.7739V62.7708Z" fill="#E9E9E9"/>
<path d="M43.3909 58.1373L42.0589 60.8044L41.6928 60.6214L41.9485 60.11L34.973 56.6286L34.1523 58.2699L41.1278 61.7513L41.3835 61.24L41.7496 61.4231L40.4177 64.0902L40.0515 63.9071L40.3072 63.3958L26.8044 56.6539L26.5487 57.1652L26.1826 56.9821L27.5146 54.315L27.8807 54.4981L27.6251 55.0094L33.7862 58.0868L34.6069 56.4456L28.4457 53.3681L28.19 53.8795L27.8239 53.6964L29.1559 51.0293L29.522 51.2124L29.2663 51.7237L42.7691 58.4656L43.0248 57.9543L43.3909 58.1373Z" fill="#E9E9E9"/>
<path d="M47.813 52.1527L44.3284 56.7009L44.0033 56.4516L44.3505 55.9971L32.3691 46.8216L32.0219 47.2761L31.6968 47.0268L35.1814 42.4785L38.969 45.3792L37.8548 46.8342L34.3891 44.1798L33.4833 45.3634L38.95 49.5487L40.2725 47.819L40.5976 48.0684L39.2751 49.798L45.4647 54.5357L46.3705 53.3521L42.9049 50.6976L44.0191 49.2425L47.8098 52.1432L47.813 52.1527Z" fill="#E9E9E9"/>
<path d="M58.9455 42.9858L56.493 44.6807L56.2594 44.343L56.7297 44.0179L50.5686 35.0981L55.9091 45.0816L54.7034 45.9149L47.065 37.519L53.2294 46.4388L53.6996 46.1137L53.9332 46.4514L52.5192 47.4299L52.2856 47.0922L52.7559 46.7671L44.177 34.3532L43.7067 34.6783L43.4731 34.3406L45.4711 32.9581L53.8133 42.2504L47.9046 31.279L49.9026 29.8965L50.1362 30.2342L49.6659 30.5593L58.2448 42.9731L58.7151 42.648L58.9486 42.9858H58.9455Z" fill="#E9E9E9"/>
<path d="M64.9645 37.942C65.4632 39.113 64.7309 40.5586 63.339 41.1489C61.947 41.7391 60.3973 41.2625 59.9017 40.0883L55.4103 29.5052C54.9147 28.3342 55.6438 26.8886 57.0358 26.2984C58.4277 25.7081 59.9743 26.1847 60.473 27.3557L64.9645 37.942ZM63.6672 39.5802L58.3962 27.1537C58.2005 26.6929 57.6607 26.4783 57.1968 26.674C56.7328 26.8696 56.5118 27.4094 56.7075 27.8702L61.9786 40.2967C62.1743 40.7575 62.714 40.9721 63.178 40.7764C63.642 40.5807 63.8629 40.041 63.6672 39.5802Z" fill="#E9E9E9"/>
<path d="M73.297 38.0944L67.8176 39.3254L67.7292 38.9277L68.2879 38.8014L64.9801 24.0771L64.4214 24.2034L64.333 23.8057L67.24 23.1523L67.3284 23.55L66.7697 23.6763L70.0775 38.4006L71.419 38.0976L70.4626 33.8397L72.2522 33.4388L73.3001 38.0944H73.297Z" fill="#E9E9E9"/>
<path d="M80.2948 22.0947L79.7235 22.1199L80.421 37.6049L78.9565 37.6711L75.6297 25.4214L76.1695 37.3871L76.7408 37.3618L76.7597 37.769L75.0427 37.8479L75.0237 37.4407L75.595 37.4155L74.9164 22.3409L74.3451 22.3661L74.3262 21.9589L76.6398 21.8548L79.632 32.7757L79.1522 22.1483L78.5809 22.1736L78.562 21.7664L80.279 21.6875L80.2979 22.0947H80.2948Z" fill="#E9E9E9"/>
<path d="M88.4537 38.3998L85.4993 38.0242L85.5498 37.617L86.118 37.6896L86.2916 33.0624L84.6534 32.8541L83.615 37.374L84.1831 37.4466L84.1326 37.8537L82.4282 37.6359L82.4787 37.2288L83.0469 37.3014L86.5946 22.1289L88.4126 22.3593L87.936 37.9232L88.5042 37.9958L88.4537 38.4029V38.3998ZM86.32 32.6521L86.6545 24.0353L84.7292 32.4501L86.32 32.6521Z" fill="#E9E9E9"/>
<path d="M96.1584 40.6916L95.3946 40.4486C94.4129 40.1361 94.0184 39.4859 94.3688 38.3812L96.0795 33.0122C96.231 32.5356 95.9627 32.0212 95.4829 31.8697L94.7191 31.6266L92.355 39.0535L92.9011 39.2271L92.778 39.6184L89.9404 38.7126L90.0635 38.3212L90.6096 38.4948L95.1894 24.1177L94.6434 23.9441L94.7665 23.5527L97.8249 24.528C99.2674 24.9889 100.129 26.3587 99.7408 27.5707L98.8097 30.4935C98.5256 31.3804 97.645 31.958 96.6382 32.0212C97.4178 32.6745 97.8092 33.634 97.5251 34.521L95.9248 39.5458C95.7923 39.9562 95.8491 40.1645 96.2405 40.2907L96.2846 40.3034L96.1615 40.6947L96.1584 40.6916ZM96.7549 30.8912L98.2921 26.062C98.4436 25.5854 98.1753 25.0709 97.6955 24.9194L96.9317 24.6764L94.8422 31.2384L95.606 31.4814C96.0858 31.6361 96.6034 31.371 96.7549 30.8944V30.8912Z" fill="#E9E9E9"/>
<path d="M107.903 45.074C107.174 46.1188 105.561 46.2671 104.321 45.4023C103.08 44.5375 102.66 42.9719 103.39 41.9272L109.964 32.4929C110.693 31.4482 112.306 31.2998 113.547 32.1646C114.787 33.0295 115.207 34.595 114.478 35.6398L113.01 37.745L111.504 36.6971L113.543 33.7712C113.831 33.3609 113.723 32.7896 113.31 32.5024C112.896 32.2152 112.325 32.313 112.038 32.7233L104.318 43.7957C104.03 44.206 104.138 44.7773 104.551 45.0646C104.965 45.3518 105.536 45.2539 105.823 44.8436L109.825 39.1023L109.074 38.5783L109.308 38.2437L111.564 39.8156L107.9 45.074H107.903Z" fill="#E9E9E9"/>
<path d="M112.808 52.8529L112.246 52.2784C111.527 51.5398 111.482 50.7823 112.309 49.9711L116.34 46.032C116.697 45.6817 116.703 45.1009 116.35 44.7411L115.788 44.1666L110.214 49.6176L110.615 50.0279L110.321 50.3152L108.238 48.1846L108.531 47.8974L108.932 48.3077L119.721 37.7561L119.32 37.3458L119.613 37.0586L121.857 39.3532C122.915 40.4359 123.031 42.0519 122.122 42.9388L119.929 45.0851C119.263 45.7353 118.212 45.8332 117.296 45.4166C117.678 46.3571 117.574 47.3893 116.905 48.0426L113.136 51.7292C112.827 52.0322 112.777 52.2405 113.067 52.5341L113.099 52.5656L112.805 52.8529H112.808ZM117.934 44.4728L121.557 40.9282C121.914 40.5779 121.92 39.9971 121.567 39.6373L121.005 39.0629L116.081 43.8763L116.643 44.4507C116.997 44.8105 117.577 44.82 117.934 44.4697V44.4728Z" fill="#E9E9E9"/>
<path d="M118.872 57.77C117.811 58.4738 116.255 58.0193 115.418 56.7568C114.582 55.4974 114.771 53.8877 115.832 53.1838L125.418 46.8333C126.478 46.1294 128.034 46.5839 128.868 47.8465C129.704 49.1058 129.515 50.7156 128.454 51.4194L118.868 57.77H118.872ZM117.025 56.7947L128.277 49.3394C128.694 49.0617 128.808 48.4935 128.53 48.0737C128.252 47.6539 127.681 47.534 127.267 47.8118L116.015 55.267C115.598 55.5448 115.485 56.1129 115.763 56.5327C116.04 56.9525 116.608 57.0724 117.025 56.7947Z" fill="#E9E9E9"/>
<path d="M134.858 60.8516L134.637 60.3213L122.365 65.4314C121.191 65.9206 119.749 65.1789 119.168 63.7838C118.587 62.3887 119.077 60.8421 120.251 60.3529L132.523 55.2428L132.302 54.7125L132.68 54.5547L133.826 57.3038L133.447 57.4617L133.226 56.9314L120.03 62.4266C119.569 62.6191 119.348 63.1557 119.544 63.6228C119.736 64.0868 120.273 64.3109 120.737 64.1184L133.933 58.6232L133.712 58.0961L134.091 57.9383L135.237 60.6874L134.858 60.8452V60.8516Z" fill="#E9E9E9"/>
<path d="M131.146 72.3277C129.899 72.5834 128.624 71.5828 128.318 70.1025L128.157 69.3166L121.879 70.6139L121.996 71.1757L121.595 71.2577L120.992 68.3413L121.393 68.2592L121.51 68.8211L136.288 65.7689L136.171 65.2071L136.572 65.125L137.222 68.2687C137.528 69.749 136.755 71.1725 135.508 71.4313L131.146 72.3309V72.3277ZM129.798 70.7338L136.12 69.4302C136.61 69.3292 136.928 68.8432 136.824 68.3476L136.663 67.5617L128.561 69.2345L128.722 70.0205C128.823 70.5129 129.309 70.8348 129.798 70.7338Z" fill="#E9E9E9"/>
<path d="M35.2731 90.4805L36.3557 94.4132C36.8671 96.2755 36.4252 97.093 34.6734 97.5727C33.1142 98.002 32.5681 97.8252 32.0505 96.7489L32.0126 96.7584C32.2083 97.6611 31.7885 98.2734 30.8101 98.5291L28.9005 99.0562L28.5565 97.8031L30.2009 97.3518C31.1699 97.1119 31.454 96.5753 31.1478 95.6127L30.4692 93.1413L27.4991 93.9587L27.1582 92.7183L35.2763 90.4836L35.2731 90.4805ZM32.202 95.256C32.3535 95.8052 32.524 96.1366 32.7575 96.3197C33.0637 96.5753 33.3541 96.588 34.0611 96.3923C35.0111 96.1303 35.2668 95.9693 35.3647 95.5621C35.412 95.3538 35.3773 95.0351 35.2668 94.6342L34.5472 92.0176L31.5423 92.8446L32.2052 95.256H32.202Z" fill="#E9E9E9"/>
<path d="M35.6837 102.676L37.5585 106.325L36.6716 106.779L34.7967 103.131L32.36 104.381L34.3327 108.222L33.3669 108.717L30.8071 103.73L38.2971 99.8828L40.8474 104.848L39.8816 105.343L37.9215 101.524L35.6868 102.673L35.6837 102.676Z" fill="#E9E9E9"/>
<path d="M38.2498 112.918L36.5707 113.536L35.709 112.479L44.0953 109.439L45.2821 110.898L40.636 118.527L39.7901 117.488L40.7275 115.96L38.2467 112.918H38.2498ZM43.9218 110.822L39.222 112.552L41.2957 115.096L43.9218 110.822Z" fill="#E9E9E9"/>
<path d="M45.61 121.494L48.7948 124.123L48.0562 125.02L43.8804 121.57L49.243 115.074L50.2372 115.895L45.6132 121.494H45.61Z" fill="#E9E9E9"/>
<path d="M60.3442 126.496L64.1476 128.036L63.772 128.961L59.9686 127.421L58.9396 129.959L62.9418 131.578L62.5347 132.585L57.3394 130.479L60.4988 122.674L65.6721 124.77L65.2649 125.776L61.2879 124.164L60.3442 126.493V126.496Z" fill="#E9E9E9"/>
<path d="M73.0166 128.873C73.1208 128.314 73.1208 128.109 73.0324 127.888C72.8904 127.541 72.5495 127.374 71.5552 127.191C69.8413 126.872 69.4815 127.011 69.2795 128.103C69.1564 128.759 69.2574 129.113 69.6425 129.328C69.8634 129.457 69.9707 129.492 71.2522 129.795C72.7041 130.142 73.146 130.315 73.4901 130.672C73.8846 131.105 73.9635 131.647 73.7804 132.639C73.5563 133.844 73.2375 134.387 72.6252 134.633C72.0855 134.842 71.4732 134.816 69.8855 134.523C68.582 134.28 68.1369 134.119 67.6824 133.727C67.4078 133.484 67.209 133.036 67.1995 132.597C67.1932 132.212 67.2247 131.973 67.3415 131.288L68.582 131.518C68.4431 132.263 68.4462 132.455 68.5472 132.743C68.6893 133.156 68.9039 133.245 70.2927 133.503C72.0445 133.828 72.2843 133.705 72.5274 132.389C72.6442 131.767 72.5589 131.458 72.237 131.256C72.0981 131.17 71.5542 131.009 70.6052 130.773C69.1154 130.42 68.9513 130.35 68.5662 130.072C67.9696 129.627 67.8024 128.993 68.0075 127.901C68.1843 126.945 68.4967 126.373 68.9923 126.133C69.5573 125.852 70.198 125.856 71.6783 126.133C73.3165 126.439 73.9288 126.733 74.2223 127.364C74.3928 127.756 74.4212 128.223 74.3044 128.857L74.257 129.107L73.0166 128.876V128.873Z" fill="#E9E9E9"/>
<path d="M81.46 135.376L80.1722 135.386L80.1248 128.126L77.5493 128.142L77.543 126.98L84.0198 126.939L84.0261 128.114H81.4126L81.46 135.376Z" fill="#E9E9E9"/>
<path d="M88.407 133.058L88.1703 134.832L86.832 135.1L88.0598 126.266L89.9031 125.896L94.4798 133.566L93.1668 133.828L92.2515 132.285L88.4007 133.058H88.407ZM89.2024 127.064L88.5365 132.026L91.7559 131.382L89.2024 127.064Z" fill="#E9E9E9"/>
<path d="M100.786 131.234L99.593 131.717L96.8691 124.988L94.4829 125.954L94.0474 124.878L100.051 122.447L100.493 123.536L98.0654 124.505L100.789 131.234H100.786Z" fill="#E9E9E9"/>
<path d="M105.647 123.359L109.084 121.118L109.63 121.954L106.193 124.195L107.689 126.49L111.306 124.129L111.899 125.038L107.206 128.1L102.604 121.045L107.279 117.996L107.872 118.905L104.277 121.25L105.65 123.356L105.647 123.359Z" fill="#E9E9E9"/>
<path d="M120.829 116.683L119.976 117.649L113.667 112.075L114.519 111.109L120.829 116.683Z" fill="#E9E9E9"/>
<path d="M127.975 106.366L126.848 108.206L120.911 108.039C120.595 108.023 120.258 107.995 119.08 107.91L118.49 107.859L118.465 107.9L118.837 108.115L119.219 108.336C119.248 108.336 119.623 108.569 119.98 108.787L124.717 111.688L124.051 112.777L116.868 108.38L117.988 106.549L123.303 106.739C123.897 106.761 124.212 106.777 125.601 106.855L126.356 106.903L126.375 106.871L126.008 106.647L125.636 106.436C125.576 106.414 125.219 106.196 124.885 105.991L120.112 103.071L120.785 101.973L127.968 106.369L127.975 106.366Z" fill="#E9E9E9"/>
<path d="M129.521 94.2556L129.796 94.3471C130.923 94.7228 131.317 94.9753 131.579 95.4613C131.756 95.7738 131.813 96.2725 131.734 96.7523C131.699 97.0584 131.507 97.7149 131.238 98.5167C130.838 99.7129 130.61 100.158 130.2 100.552C129.629 101.108 128.938 101.222 127.82 100.944C127.325 100.83 126.384 100.543 125.592 100.281C123.723 99.6561 123.25 99.3657 122.918 98.6429C122.559 97.8854 122.625 97.2541 123.275 95.3004C123.644 94.1988 123.831 93.8358 124.222 93.5012C124.623 93.1414 125.229 93.0404 125.895 93.1951C126.154 93.2551 126.302 93.2898 126.81 93.4476L126.403 94.6691C124.97 94.2177 124.774 94.3251 124.291 95.7738C123.575 97.917 123.685 98.22 125.365 98.7818C127.89 99.6245 128.455 99.7729 128.928 99.7476C129.528 99.7097 129.777 99.3941 130.194 98.1474C130.806 96.3167 130.721 96.0074 129.499 95.6002C129.392 95.5655 129.297 95.5339 129.111 95.4834L129.518 94.2619L129.521 94.2556Z" fill="#E9E9E9"/>
<path d="M133.085 90.9317L132.864 92.1122L131.548 91.8629L131.769 90.6855L133.085 90.9349V90.9317Z" fill="#E9E9E9"/>
<path d="M51.6639 79.2468H54.1259V79.8465H51.6639V81.491H54.2553V82.1412H50.8906V77.0879H54.2395V77.7381H51.6639V79.2468Z" fill="black"/>
<path d="M58.2986 78.515C58.2986 78.1741 58.2765 78.0542 58.2007 77.9311C58.0808 77.7417 57.8598 77.6818 57.2538 77.6818C56.2091 77.6818 56.0102 77.8017 56.0102 78.4708C56.0102 78.8717 56.1081 79.0705 56.3574 79.1526C56.5026 79.2063 56.5689 79.2126 57.358 79.2504C58.2512 79.2946 58.5321 79.3483 58.7752 79.5219C59.0561 79.7334 59.1603 80.0458 59.1603 80.6519C59.1603 81.3873 59.0308 81.7439 58.6994 81.9554C58.4027 82.1385 58.0398 82.189 57.0708 82.189C56.2754 82.189 55.9945 82.1448 55.6851 81.9617C55.4958 81.8481 55.3285 81.6051 55.2748 81.3494C55.2306 81.1221 55.2212 80.977 55.2148 80.5603H55.9724C55.9724 81.0148 55.9945 81.1285 56.086 81.2863C56.2154 81.5135 56.3511 81.5451 57.2002 81.5451C58.267 81.5451 58.3964 81.4472 58.3964 80.6424C58.3964 80.2636 58.3144 80.09 58.0997 80.0048C58.0092 79.969 57.6705 79.9333 57.0834 79.8975C56.1681 79.8533 56.0607 79.8281 55.8019 79.7081C55.4011 79.5124 55.2338 79.1558 55.2338 78.4898C55.2338 77.9059 55.3537 77.5366 55.6189 77.3377C55.9219 77.1105 56.3006 77.041 57.2033 77.041C58.2039 77.041 58.5984 77.1483 58.8383 77.4892C58.9835 77.7007 59.0498 77.9753 59.0498 78.3604V78.5119H58.2923L58.2986 78.515Z" fill="black"/>
<path d="M62.2755 82.1412H61.5022V77.7854H59.9556V77.0879H63.841V77.7918L62.2723 77.7854V82.1412H62.2755Z" fill="black"/>
<path d="M64.845 77.0871H67.2532C67.9666 77.0871 68.3895 77.2165 68.6767 77.5259C69.0239 77.8983 69.1376 78.337 69.1376 79.2839C69.1376 80.6033 69.0934 81.0199 68.904 81.3734C68.7146 81.7522 68.4337 81.9637 68.0013 82.0615C67.7898 82.1057 67.531 82.1373 67.3416 82.1373H64.8418V77.084L64.845 77.0871ZM67.1175 81.4744C67.6257 81.4744 67.9508 81.3766 68.1086 81.1651C68.3043 80.9063 68.3579 80.5812 68.3579 79.6564C68.3579 78.618 68.3138 78.3307 68.1244 78.0719C67.9666 77.851 67.7014 77.7626 67.1996 77.7626H65.6151V81.4744H67.1144H67.1175Z" fill="black"/>
<path d="M92.5256 82.1412H91.746V77.7381L90.4424 79.0953L89.9658 78.6092L91.4872 77.0879H92.5256V82.1412Z" fill="black"/>
<path d="M95.6252 80.7769C95.6252 81.0799 95.6473 81.1999 95.723 81.3229C95.8367 81.4965 95.9945 81.5281 96.7772 81.5281C97.8441 81.5281 97.9356 81.446 97.9356 80.4455V79.6943H97.9198C97.6926 80.0951 97.4811 80.1709 96.5626 80.1709C95.2591 80.1709 94.9024 79.8521 94.9024 78.6874C94.9024 77.3618 95.2654 77.043 96.7804 77.043C97.9009 77.043 98.3175 77.2008 98.5606 77.7247C98.6963 78.0277 98.7279 78.3907 98.7279 79.7322C98.7279 81.0736 98.69 81.345 98.4943 81.6575C98.2355 82.0678 97.8283 82.1878 96.7457 82.1878C95.8524 82.1878 95.5021 82.1183 95.2149 81.9006C94.9876 81.727 94.8677 81.3924 94.8677 80.9694C94.8677 80.9379 94.8677 80.8558 94.874 80.7801H95.6252V80.7769ZM95.6631 78.5801C95.6631 79.4292 95.7767 79.527 96.7457 79.527C97.4495 79.527 97.7368 79.4576 97.8504 79.2776C97.9198 79.164 97.9419 79.0283 97.9419 78.7253C97.9419 77.8005 97.822 77.6963 96.7457 77.6963C95.7988 77.6963 95.6631 77.81 95.6631 78.5833V78.5801Z" fill="black"/>
<path d="M103.04 78.4444C103.046 78.3844 103.046 78.3244 103.046 78.2992C103.046 77.8068 102.879 77.6995 102.105 77.6995C101.001 77.6995 100.849 77.8068 100.849 78.5769V79.5175H100.865C101.108 79.123 101.304 79.0472 102.168 79.0472C102.926 79.0472 103.305 79.1293 103.554 79.366C103.788 79.587 103.895 79.9563 103.895 80.5402C103.895 81.2598 103.743 81.7143 103.425 81.9353C103.166 82.1247 102.819 82.1846 102.017 82.1846C101.054 82.1846 100.669 82.0773 100.372 81.7301C100.177 81.5029 100.101 81.2819 100.069 80.7769C100.065 80.6801 100.058 80.3192 100.047 79.6943C100.068 78.537 100.132 77.8605 100.237 77.6648C100.486 77.2103 100.95 77.043 101.941 77.043C102.85 77.043 103.289 77.1408 103.532 77.4059C103.721 77.6016 103.813 77.892 103.813 78.2834V78.4412H103.04V78.4444ZM100.941 79.9152C100.849 80.0289 100.821 80.1804 100.821 80.4991C100.821 81.4145 100.956 81.5376 101.995 81.5376C103.033 81.5376 103.137 81.4397 103.137 80.6222C103.137 80.2435 103.1 80.0162 103.017 79.8963C102.91 79.7606 102.607 79.7006 101.957 79.7006C101.373 79.7006 101.079 79.77 100.941 79.9215V79.9152Z" fill="black"/>
<path d="M105.94 80.7769C105.94 81.0799 105.962 81.1999 106.038 81.3229C106.152 81.4965 106.309 81.5281 107.092 81.5281C108.159 81.5281 108.251 81.446 108.251 80.4455V79.6943H108.235C108.008 80.0951 107.796 80.1709 106.878 80.1709C105.574 80.1709 105.217 79.8521 105.217 78.6874C105.217 77.3618 105.58 77.043 107.095 77.043C108.216 77.043 108.632 77.2008 108.876 77.7247C109.011 78.0277 109.043 78.3907 109.043 79.7322C109.043 81.0736 109.005 81.345 108.809 81.6575C108.55 82.0678 108.143 82.1878 107.061 82.1878C106.167 82.1878 105.817 82.1183 105.53 81.9006C105.303 81.727 105.183 81.3924 105.183 80.9694C105.183 80.9379 105.183 80.8558 105.189 80.7801H105.94V80.7769ZM105.978 78.5801C105.978 79.4292 106.092 79.527 107.061 79.527C107.764 79.527 108.052 79.4576 108.165 79.2776C108.235 79.164 108.257 79.0283 108.257 78.7253C108.257 77.8005 108.137 77.6963 107.061 77.6963C106.114 77.6963 105.978 77.81 105.978 78.5833V78.5801Z" fill="black"/>
</g>
<defs>
<clipPath id="clip0_5453_4669">
<rect width="159" height="158.325" fill="white" transform="translate(0.5 0.837891)"/>
</clipPath>
</defs>
</svg>
