<svg width="126" height="125" viewBox="0 0 126 125" fill="none" xmlns="http://www.w3.org/2000/svg">
<path d="M64.3438 27.5961L64.4699 27.9292L76.0216 23.4941L64.9981 29.1118L65.1599 29.4306L76.1834 23.8129L65.8071 30.5513L66.0022 30.8511L76.3761 24.1127L66.7612 31.898L66.9872 32.1764L76.6022 24.3911L67.8533 33.1376L68.1055 33.3898L76.8544 24.6433L69.0692 34.2583L69.3452 34.482L77.1328 24.867L70.3921 35.2434L70.6919 35.4385L77.4302 25.0621L71.8149 36.0856L72.1314 36.2474L77.749 25.2239L73.3139 36.7733L73.647 36.9018L78.0821 25.3524L74.8795 37.3015L75.2245 37.3943L78.4271 25.4452L76.4903 37.6631L76.8425 37.7179L78.7793 25.4999L78.1321 37.8535L78.489 37.8725L79.1362 25.5189L79.7834 37.8725L80.1403 37.8535L79.4907 25.4999L81.4275 37.7179L81.7796 37.6631L79.8452 25.4452L83.0455 37.3943L83.3905 37.3015L80.1902 25.3524L84.623 36.9018L84.9561 36.7733L80.5234 25.2239L86.1386 36.2474L86.4575 36.0856L80.8398 25.0621L87.5781 35.4385L87.8779 35.2434L81.1396 24.867L88.9248 34.482L89.2032 34.2583L81.418 24.6433L90.1645 33.3898L90.4167 33.1376L81.6702 24.3911L91.2828 32.1764L91.5088 31.898L81.8939 24.1127L92.2702 30.8511L92.4653 30.5513L82.0866 23.8129L93.1125 29.4306L93.2743 29.1118L82.2484 23.4941L93.8001 27.9292L93.9286 27.5961L82.3792 23.1634L94.3283 26.3636L94.4211 26.0186L82.472 22.8184L94.69 24.7528L94.7447 24.4006L82.5268 22.4662L94.8804 23.1134L94.8994 22.7565L82.5458 22.1093L94.8994 21.4621L94.8804 21.1052L82.5268 21.7524L94.7447 19.818L94.69 19.4635L82.472 21.4003L94.4211 18.1977L94.3283 17.8527L82.3792 21.0553L93.9286 16.6202L93.8001 16.2871L82.2484 20.7222L93.2743 15.1045L93.1125 14.7881L82.089 20.4033L92.4653 13.665L92.2702 13.3676L81.8939 20.1035L91.5088 12.3183L91.2828 12.0423L81.6702 19.8275L90.4167 11.0787L90.1645 10.8264L81.418 19.5753L89.2032 9.96036L88.9248 9.7367L81.1396 19.3517L87.8779 8.97531L87.5781 8.78021L80.8398 19.1566L86.4575 8.13302L86.1386 7.97123L80.5234 18.9924L84.9561 7.44301L84.623 7.3169L80.1902 18.8663L83.3905 6.91479L83.0455 6.82438L79.8452 18.7735L81.7796 6.55313L81.4275 6.49841L79.4907 18.7188L80.1403 6.36278L79.7834 6.34375L79.1362 18.6997L78.489 6.34375L78.1321 6.36278L78.7793 18.7188L76.8425 6.49841L76.4903 6.55313L78.4271 18.7735L75.2245 6.82438L74.8795 6.91479L78.0821 18.8663L73.647 7.3169L73.3139 7.44301L77.749 18.9924L72.1314 7.97123L71.8149 8.13302L77.4302 19.1566L70.6919 8.78021L70.3921 8.97531L77.1328 19.3517L69.3452 9.7367L69.0692 9.96036L76.8544 19.5753L68.1055 10.8264L67.8533 11.0787L76.6022 19.8275L66.9872 12.0423L66.7612 12.3183L76.3761 20.1035L66.0022 13.3676L65.8071 13.665L76.1834 20.4033L65.1599 14.7881L64.9981 15.1045L76.0216 20.7222L64.4699 16.2871L64.3438 16.6202L75.8931 21.0553L63.9417 17.8527L63.8512 18.1977L75.798 21.4003L63.58 19.4635L63.5253 19.818L75.7432 21.7524L63.3896 21.1052L63.3706 21.4621L75.7266 22.1093L63.3706 22.7565L63.3896 23.1134L75.7432 22.4662L63.5253 24.4006L63.58 24.7528L75.798 22.8184L63.8512 26.0186L63.9417 26.3636L75.8931 23.1634L64.3438 27.5961Z" fill="#233063"/>
<path d="M30.1316 23.9471L30.1696 24.3017L42.4733 23.0097L30.3719 25.5817L30.4456 25.9291L42.5494 23.3571L30.7811 27.1807L30.8906 27.5209L42.6565 23.6973L31.3545 28.7296L31.4997 29.0556L42.8016 24.0233L32.0898 30.2096L32.2682 30.5189L42.9824 24.3326L32.9725 31.6039L33.1819 31.8942L43.1918 24.6205L33.998 32.9006L34.2359 33.1647L43.4298 24.887L35.152 34.0808L35.4161 34.3187L43.6962 25.1249L36.4226 35.1348L36.7128 35.3442L43.9841 25.3343L37.7978 36.0485L38.1071 36.227L44.2935 25.5127L39.2611 36.8147L39.5871 36.9598L44.6194 25.6579L40.7958 37.4238L41.1361 37.5356L44.9597 25.7673L42.3852 37.8711L42.735 37.9449L45.3071 25.8435L44.0151 38.1471L44.3696 38.1852L45.6616 25.8815V38.2518H46.0185V25.8815L47.3129 38.1852L47.6674 38.1471L46.3754 25.8435L48.9475 37.9449L49.2949 37.8711L46.7228 25.7673L50.5464 37.5356L50.8866 37.4238L47.063 25.6579L52.0954 36.9598L52.4213 36.8147L47.389 25.5127L53.5753 36.227L53.8846 36.0485L47.6983 25.3343L54.9696 35.3442L55.2599 35.1348L47.9862 25.1249L56.264 34.3187L56.5305 34.0808L48.2527 24.887L57.4465 33.1647L57.6844 32.9006L48.4906 24.6205L58.5006 31.8942L58.7099 31.6039L48.7 24.3326L59.4142 30.5189L59.5927 30.2096L48.8808 24.0233L60.1804 29.0556L60.3255 28.7296L49.0236 23.6973L60.7895 27.5209L60.9013 27.1807L49.1331 23.3571L61.2368 25.9291L61.3106 25.5817L49.2092 23.0097L61.5128 24.3017L61.5509 23.9471L49.2473 22.6528H61.6175V22.2959H49.2473L61.5509 21.0039L61.5128 20.6494L49.2092 21.9413L61.3106 19.3693L61.2368 19.0219L49.1331 21.594L60.9013 17.7703L60.7895 17.4301L49.0236 21.2537L60.3255 16.2214L60.1804 15.8954L48.8785 20.9277L59.5927 14.7414L59.4142 14.4321L48.7 20.6184L58.7099 13.3471L58.5006 13.0568L48.4906 20.3305L57.6844 12.0504L57.4465 11.7863L48.2527 20.064L56.5305 10.8702L56.264 10.6323L47.9862 19.8261L55.2599 9.81617L54.9696 9.60679L47.6983 19.6167L53.8846 8.9025L53.5753 8.72405L47.389 19.4383L52.4213 8.13635L52.0954 7.99121L47.063 19.2931L50.8866 7.52485L50.5464 7.4154L46.7228 19.1813L49.2949 7.07991L48.9475 7.00616L46.3754 19.1075L47.6674 6.80391L47.3129 6.76584L46.0185 19.0695V6.69922H45.6616V19.0695L44.3696 6.76584L44.0151 6.80391L45.3071 19.1075L42.735 7.00616L42.3852 7.07991L44.9597 19.1813L41.1361 7.4154L40.7958 7.52485L44.6194 19.2931L39.5871 7.99121L39.2611 8.13635L44.2935 19.4383L38.1071 8.72405L37.7978 8.9025L43.9841 19.6167L36.7128 9.60679L36.4226 9.81617L43.6962 19.8261L35.4161 10.6323L35.152 10.8702L43.4298 20.064L34.2359 11.7863L33.998 12.0504L43.1918 20.3305L33.1819 13.0568L32.9725 13.3471L42.9824 20.6184L32.2682 14.4321L32.0898 14.7414L42.8016 20.9277L31.4997 15.8954L31.3545 16.2214L42.6565 21.2537L30.8906 17.4301L30.7811 17.7703L42.5494 21.594L30.4456 19.0219L30.3719 19.3693L42.4733 21.9413L30.1696 20.6494L30.1316 21.0039L42.4352 22.2959H30.0649V22.6528H42.4352L30.1316 23.9471Z" fill="#233063"/>
<path d="M7.27024 50.189L7.36304 50.534L19.3145 47.3314L7.76277 51.7641L7.89125 52.0972L19.4406 47.6645L8.41709 53.2797L8.57889 53.5986L19.6048 47.9809L9.22845 54.7192L9.42118 55.019L19.7975 48.2807L10.1826 56.0683L10.4086 56.3443L20.0212 48.5591L11.2747 57.308L11.5269 57.5602L20.2758 48.8113L12.4882 58.4263L12.7665 58.6499L20.5518 49.035L13.8135 59.4113L14.1133 59.6064L20.8516 49.2301L15.2339 60.2536L15.5528 60.4154L21.168 49.3919L16.7353 60.9412L17.0684 61.0697L21.5011 49.5204L18.3009 61.4695L18.6459 61.5623L21.8461 49.6132L19.9117 61.8311L20.2639 61.8882L22.2007 49.6679L21.5511 62.0238L21.908 62.0405L22.5552 49.6869L23.2024 62.0405L23.5593 62.0238L22.9121 49.6679L24.8489 61.8882L25.201 61.8311L23.2642 49.6132L26.4668 61.5623L26.8119 61.4695L23.6092 49.5204L28.0444 61.0697L28.3775 60.9412L23.9424 49.3919L29.56 60.4154L29.8765 60.2536L24.2612 49.2301L30.9995 59.6064L31.2993 59.4113L24.561 49.035L32.3462 58.6499L32.6222 58.4263L24.837 48.8113L33.5859 57.5602L33.8381 57.308L25.0892 48.5591L34.7042 56.3443L34.9302 56.0683L25.3152 48.2807L35.6892 55.019L35.8843 54.7192L25.508 47.9809L36.5315 53.5986L36.6933 53.2797L25.6698 47.6645L37.2215 52.0972L37.35 51.7641L25.7983 47.3314L37.7497 50.534L37.8425 50.189L25.8934 46.9863L38.1114 48.9208L38.1661 48.5686L25.9481 46.6342L38.3017 47.2814L38.3208 46.9245L25.9672 46.2773L38.3208 45.6301L38.3017 45.2732L25.9481 45.9204L38.1661 43.986L38.1114 43.6338L25.8934 45.5683L37.8425 42.3656L37.7497 42.0206L25.7983 45.2232L37.35 40.7905L37.2215 40.4574L25.6698 44.8901L36.6933 39.2749L36.5315 38.956L25.508 44.5737L35.8843 37.8354L35.6892 37.5356L25.3152 44.2739L34.9302 36.4863L34.7042 36.2103L25.0892 43.9955L33.8381 35.2466L33.5859 34.9944L24.837 43.7433L32.6222 34.1283L32.3462 33.9047L24.561 43.5196L31.2993 33.1433L30.9995 32.9482L24.2612 43.3245L29.8765 32.301L29.56 32.1392L23.9424 43.1627L28.3775 31.6134L28.0444 31.4849L23.6092 43.0342L26.8119 31.0851L26.4668 30.9923L23.2642 42.9414L25.201 30.7235L24.8489 30.6664L22.9121 42.8867L23.5593 30.5308L23.2024 30.5117L22.5552 42.8677L21.908 30.5117L21.5511 30.5308L22.2007 42.8867L20.2639 30.6664L19.9117 30.7235L21.8461 42.9414L18.6459 30.9923L18.3009 31.0851L21.5011 43.0342L17.0684 31.4849L16.7353 31.6134L21.168 43.1627L15.5528 32.1392L15.2339 32.301L20.8516 43.3245L14.1133 32.9482L13.8135 33.1433L20.5518 43.5196L12.7665 33.9047L12.4882 34.1283L20.2758 43.7433L11.5269 34.9944L11.2747 35.2466L20.0212 43.9955L10.4086 36.2103L10.1826 36.4863L19.7975 44.2739L9.42118 37.5356L9.22845 37.8354L19.6048 44.5737L8.57889 38.956L8.41709 39.2749L19.443 44.8901L7.89125 40.4574L7.76277 40.7905L19.3121 45.2232L7.36304 42.0206L7.27024 42.3656L19.2193 45.5683L7.00138 43.6338L6.94665 43.986L19.1646 45.9204L6.81103 45.2732L6.79199 45.6301L19.1456 46.2773L6.79199 46.9245L6.81103 47.2814L19.1646 46.6342L6.94665 48.5686L7.00138 48.9208L19.2193 46.9863L7.27024 50.189Z" fill="#233063"/>
<path d="M30.9642 93.1462L24.7803 82.4319L32.0516 92.4419L32.3395 92.2325L25.0682 82.2226L33.3459 91.4164L33.6124 91.1784L25.3323 81.9846L34.5285 90.2624L34.7664 89.9959L25.5726 81.7181L35.5802 88.9894L35.7919 88.7015L25.782 81.4302L36.4962 87.6166L36.6747 87.3072L25.9604 81.1209L37.2624 86.1533L37.4075 85.8273L26.1056 80.795L37.8715 84.6186L37.9809 84.2783L26.215 80.4547L38.3164 83.0268L38.3925 82.6794L26.2912 80.1049L38.5948 81.3993L38.6305 81.0448L26.3269 79.7504H38.6995V79.3935H26.3292L38.6305 78.1015L38.5948 77.747L26.2912 79.039L38.3925 76.4669L38.3164 76.1172L26.215 78.6892L37.9809 74.868L37.8715 74.5277L26.1056 78.3514L37.4075 73.319L37.2624 72.9931L25.9604 78.0254L36.6747 71.8391L36.4962 71.5298L25.782 77.7161L35.7919 70.4448L35.5802 70.1545L25.5726 77.4258L34.7664 69.148L34.5285 68.8839L25.3323 77.1617L33.6124 67.9679L33.3459 67.7276L25.0682 76.9238L32.3395 66.9138L32.0516 66.7044L24.7803 76.7144L30.9642 65.9978L30.6573 65.8193L24.471 76.5359L29.5033 65.2316L29.1773 65.0865L24.145 76.3908L27.9662 64.6225L27.6284 64.5131L23.8047 76.279L26.3768 64.1776L26.0271 64.1038L23.455 76.2052L24.7494 63.9016L24.3948 63.8635L23.1005 76.1671V63.7969H22.7436V76.1671L21.4516 63.8635L21.0947 63.9016L22.389 76.2052L19.817 64.1038L19.4672 64.1776L22.0393 76.279L18.218 64.5131L17.8778 64.6225L21.7014 76.3908L16.6691 65.0865L16.3431 65.2316L21.3754 76.5359L15.1891 65.8193L14.8798 65.9978L21.0661 76.7144L13.7924 66.7044L13.5045 66.9138L20.7758 76.9238L12.4981 67.7276L12.234 67.9679L20.5117 77.1617L11.3179 68.8839L11.0776 69.148L20.2714 77.4258L10.2639 70.1545L10.0545 70.4448L20.062 77.7161L9.34781 71.5298L9.16936 71.8391L19.8836 78.0254L8.58166 72.9931L8.43652 73.319L19.7384 78.3514L7.97255 74.5277L7.8631 74.868L19.629 78.6892L7.52761 76.1172L7.45385 76.4669L19.5552 79.039L7.2516 77.747L7.21353 78.1015L19.5172 79.3935H7.14453V79.7504H19.5172L7.21353 81.0448L7.2516 81.3993L19.5552 80.1049L7.45385 82.6794L7.52761 83.0268L19.629 80.4547L7.8631 84.2783L7.97255 84.6186L19.7384 80.795L8.43652 85.8273L8.58166 86.1533L19.8836 81.1209L9.16936 87.3072L9.34781 87.6166L20.062 81.4302L10.0545 88.7015L10.2639 88.9894L20.2714 81.7181L11.0776 89.9959L11.3179 90.2624L20.5117 81.9846L12.234 91.1784L12.4981 91.4164L20.7758 82.2226L13.5045 92.2325L13.7924 92.4419L21.0661 82.4319L14.8798 93.1462L15.1891 93.3246L21.3754 82.6104L16.3431 93.9123L16.6691 94.0575L21.7014 82.7555L17.8778 94.5214L18.218 94.6333L22.0393 82.865L19.4672 94.9664L19.817 95.0425L22.389 82.9411L21.0947 95.2448L21.4516 95.2804L22.7436 82.9768V95.3494H23.1005V82.9768L24.3948 95.2804L24.7494 95.2448L23.455 82.9411L26.0271 95.0425L26.3768 94.9664L23.8047 82.865L27.6284 94.6333L27.9662 94.5214L24.145 82.7555L29.1773 94.0575L29.5033 93.9123L24.471 82.6104L30.6573 93.3246L30.9642 93.1462Z" fill="#233063"/>
<path d="M62.4687 101.851L50.1151 102.498L62.3331 100.564L62.2784 100.212L50.0604 102.146L62.0095 98.9457L61.9167 98.6007L49.9676 101.801L61.517 97.3682L61.3885 97.0351L49.8368 101.47L60.8627 95.8526L60.7009 95.5337L49.675 101.151L60.0513 94.4131L59.8586 94.1133L49.4822 100.852L59.0972 93.0664L58.8712 92.788L49.2586 100.573L58.0051 91.8267L57.7529 91.5745L49.004 100.321L56.7916 90.706L56.5132 90.4824L48.728 100.097L55.4663 89.721L55.1665 89.5283L48.4282 99.9022L54.0458 88.8787L53.727 88.7169L48.1117 99.7404L52.5445 88.1911L52.2113 88.0626L47.7786 99.6119L50.9788 87.6628L50.6338 87.57L47.4336 99.5192L49.368 87.3012L49.0159 87.2465L47.0791 99.4644L47.7287 87.1108L47.3717 87.0918L46.7246 99.4454L46.0774 87.0918L45.7205 87.1108L46.3677 99.4644L44.4309 87.2465L44.0787 87.3012L46.0155 99.5192L42.8129 87.57L42.4679 87.6628L45.6705 99.6119L41.2354 88.0626L40.9023 88.1911L45.3374 99.7404L39.7198 88.7169L39.4033 88.8787L45.0186 99.9022L38.2802 89.5283L37.9805 89.721L44.7212 100.097L36.9335 90.4824L36.6575 90.706L44.4428 100.321L35.6939 91.5745L35.4417 91.8267L44.1906 100.573L34.5756 92.788L34.3496 93.0664L43.9645 100.852L33.5905 94.1133L33.3954 94.4131L43.7718 101.151L32.7483 95.5337L32.5865 95.8526L43.61 101.47L32.0582 97.0351L31.9321 97.3682L43.4815 101.801L31.53 98.6007L31.4372 98.9457L43.3863 102.146L31.1684 100.212L31.1136 100.564L43.3316 102.498L30.978 101.851L30.959 102.208L43.315 102.855L30.959 103.502L30.978 103.859L43.3316 103.212L31.1136 105.146L31.1684 105.501L43.3863 103.564L31.4372 106.767L31.53 107.112L43.4815 103.909L31.9321 108.344L32.0582 108.677L43.61 104.242L32.5865 109.86L32.7483 110.176L43.7718 104.561L33.3954 111.299L33.5905 111.597L43.9645 104.861L34.3496 112.646L34.5756 112.922L44.1906 105.137L35.4417 113.886L35.6939 114.138L44.4428 105.389L36.6575 115.004L36.9335 115.228L44.7212 105.613L37.9805 115.989L38.2802 116.184L45.0186 105.81L39.4033 116.831L39.7198 116.993L45.3374 105.972L40.9023 117.521L41.2354 117.647L45.6705 106.098L42.4679 118.05L42.8129 118.14L46.0155 106.191L44.0787 118.411L44.4309 118.466L46.3677 106.246L45.7205 118.602L46.0774 118.621L46.7246 106.265L47.3717 118.621L47.7287 118.602L47.0791 106.246L49.0159 118.466L49.368 118.411L47.4336 106.191L50.6338 118.14L50.9788 118.05L47.7786 106.098L52.2113 117.647L52.5445 117.521L48.1117 105.972L53.727 116.993L54.0458 116.831L48.4282 105.808L55.1665 116.184L55.4663 115.989L48.728 105.613L56.5132 115.228L56.7916 115.004L49.004 105.389L57.7529 114.138L58.0051 113.886L49.2586 105.137L58.8712 112.922L59.0972 112.646L49.4822 104.861L59.8586 111.597L60.0513 111.299L49.675 104.561L60.7009 110.176L60.8627 109.86L49.8391 104.242L61.3885 108.677L61.517 108.344L49.9676 103.909L61.9167 107.112L62.0095 106.767L50.0604 103.564L62.2784 105.501L62.3331 105.146L50.1151 103.212L62.4687 103.859L62.4878 103.502L50.1342 102.855L62.4878 102.208L62.4687 101.851Z" fill="#233063"/>
<path d="M95.7272 101.018L95.6891 100.663L83.3855 101.955L95.4868 99.3829L95.4131 99.0356L83.3117 101.608L95.0776 97.784L94.9681 97.4438L83.2023 101.267L94.5042 96.2351L94.359 95.9091L83.0571 100.941L93.7713 94.7551L93.5929 94.4458L82.8787 100.632L92.8862 93.3608L92.6768 93.0705L82.6693 100.344L91.8631 92.0664L91.6228 91.7999L82.429 100.078L90.7067 90.8839L90.4426 90.646L82.1649 99.8398L89.4362 89.8298L89.1483 89.6205L81.8746 99.6304L88.0609 88.9162L87.7516 88.7377L81.5653 99.4519L86.5976 88.15L86.2716 88.0049L81.2393 99.3068L85.0629 87.5409L84.725 87.4291L80.9014 99.1973L83.4735 87.0936L83.1237 87.0198L80.5517 99.1212L81.846 86.8176L81.4891 86.7795L80.1971 99.0831V86.7129H79.8402V99.0831L78.5459 86.7795L78.1913 86.8176L79.4857 99.1212L76.9136 87.0198L76.5639 87.0936L79.1359 99.1973L75.3123 87.4291L74.9745 87.5409L78.7957 99.3068L73.7634 88.0049L73.4374 88.15L78.4721 99.4519L72.2858 88.7377L71.9765 88.9162L78.1628 99.6304L70.8891 89.6205L70.6012 89.8298L77.8725 99.8398L69.5948 90.646L69.3283 90.8839L77.6084 100.078L68.4146 91.7999L68.1743 92.0664L77.3681 100.344L67.3605 93.0705L67.1512 93.3608L77.1587 100.632L66.4445 94.4458L66.266 94.7551L76.9803 100.941L65.6783 95.9091L65.5332 96.2351L76.8351 101.267L65.0692 97.4438L64.9598 97.784L76.7257 101.608L64.6243 99.0356L64.5505 99.3829L76.6495 101.955L64.3459 100.663L64.3102 101.018L76.6138 102.312H64.2412V102.669H76.6138L64.3102 103.961L64.3459 104.315L76.6495 103.023L64.5505 105.595L64.6243 105.943L76.7257 103.371L64.9598 107.194L65.0692 107.535L76.8351 103.711L65.5332 108.743L65.6783 109.069L76.9803 104.037L66.266 110.223L66.4445 110.533L77.1587 104.346L67.1512 111.618L67.3605 111.908L77.3681 104.634L68.1743 112.914L68.4146 113.178L77.6084 104.901L69.3283 114.094L69.5948 114.332L77.8725 105.139L70.6012 115.149L70.8891 115.358L78.1628 105.348L71.9765 116.062L72.2858 116.241L78.4721 105.526L73.4374 116.831L73.7634 116.973L78.7957 105.672L74.9745 117.44L75.3123 117.549L79.1359 105.783L76.5639 117.885L76.9136 117.959L79.4857 105.857L78.1913 118.161L78.5459 118.199L79.8402 105.895V118.265H80.1971V105.895L81.4891 118.199L81.846 118.161L80.5517 105.857L83.1237 117.959L83.4735 117.885L80.9014 105.783L84.725 117.549L85.0629 117.44L81.2393 105.672L86.2716 116.973L86.5976 116.831L81.5653 105.526L87.7516 116.241L88.0609 116.062L81.8746 105.348L89.1483 115.358L89.4362 115.149L82.1649 105.139L90.4426 114.332L90.7067 114.094L82.429 104.901L91.6228 113.178L91.8631 112.914L82.6693 104.634L92.6768 111.908L92.8862 111.618L82.8787 104.346L93.5929 110.533L93.7713 110.223L83.0571 104.037L94.359 109.069L94.5042 108.743L83.2023 103.711L94.9681 107.535L95.0776 107.194L83.3117 103.371L95.4131 105.943L95.4868 105.595L83.3855 103.023L95.6891 104.315L95.7272 103.961L83.4235 102.669H95.7962V102.312H83.4235L95.7272 101.018Z" fill="#233063"/>
<path d="M119.066 78.0418L119.05 77.6849L106.696 78.3321L118.914 76.3977L118.857 76.0455L106.639 77.9799L118.588 74.7773L118.495 74.4323L106.546 77.6349L118.096 73.2022L117.967 72.8691L106.418 77.3018L117.441 71.6866L117.279 71.3677L106.256 76.9854L116.632 70.247L116.437 69.9472L106.061 76.6856L115.676 68.898L115.452 68.6219L105.837 76.4072L114.586 67.6583L114.334 67.4061L105.585 76.155L113.37 66.54L113.094 66.3164L105.307 75.9313L112.045 65.555L111.745 65.3599L105.009 75.7362L110.624 64.7127L110.306 64.5509L104.69 75.5744L109.123 64.025L108.79 63.8966L104.357 75.4459L107.56 63.4968L107.215 63.404L104.012 75.3531L105.947 63.1352L105.594 63.0781L103.66 75.2984L104.307 62.9424L103.95 62.9258L103.303 75.2794L102.656 62.9258L102.299 62.9424L102.946 75.2984L101.012 63.0781L100.66 63.1352L102.594 75.3531L99.3915 63.404L99.0465 63.4968L102.249 75.4459L97.8164 63.8966L97.4833 64.025L101.916 75.5744L96.3008 64.5509L95.9819 64.7127L101.597 75.7362L94.8612 65.3599L94.5614 65.555L101.3 75.9313L93.5122 66.3164L93.2361 66.54L101.021 76.155L92.2725 67.4061L92.0203 67.6583L100.769 76.4072L91.1542 68.6219L90.9306 68.898L100.543 76.6856L90.1692 69.9472L89.9741 70.247L100.35 76.9854L89.3269 71.3677L89.1651 71.6866L100.189 77.3018L88.6392 72.8691L88.5108 73.2022L100.06 77.6349L88.111 74.4323L88.0182 74.7773L99.9673 77.9799L87.7494 76.0455L87.6923 76.3977L99.9102 78.3321L87.5566 77.6849L87.5376 78.0418L99.8936 78.689L87.5376 79.3362L87.5566 79.6931L99.9102 79.0459L87.6923 80.9803L87.7494 81.3324L99.9673 79.398L88.0182 82.6006L88.111 82.9456L100.06 79.743L88.5108 84.1758L88.6392 84.5089L100.189 80.0761L89.1651 85.6914L89.3269 86.0103L100.35 80.3926L89.9741 87.1309L90.1692 87.4307L100.543 80.6924L90.9306 88.48L91.1542 88.756L100.769 80.9708L92.0203 89.7197L92.2725 89.9719L101.021 81.223L93.2361 90.838L93.5122 91.0616L101.3 81.4467L94.5614 91.823L94.8612 92.0181L101.597 81.6418L95.9819 92.6653L96.3008 92.8271L101.916 81.8036L97.4833 93.3529L97.8164 93.4814L102.249 81.932L99.0465 93.8811L99.3915 93.9739L102.594 82.0248L100.66 94.2428L101.012 94.2999L102.946 82.0796L102.299 94.4355L102.656 94.4546L103.303 82.0986L103.95 94.4546L104.307 94.4355L103.66 82.0796L105.594 94.2999L105.947 94.2428L104.012 82.0248L107.215 93.9739L107.56 93.8811L104.357 81.932L108.79 93.4814L109.123 93.3529L104.69 81.8036L110.306 92.8271L110.624 92.6653L105.009 81.6418L111.745 92.0181L112.045 91.823L105.307 81.4467L113.094 91.0616L113.37 90.838L105.585 81.223L114.334 89.9719L114.586 89.7197L105.837 80.9708L115.452 88.756L115.676 88.48L106.061 80.6924L116.437 87.4307L116.632 87.1309L106.256 80.3926L117.279 86.0103L117.441 85.6914L106.418 80.0761L117.967 84.5089L118.096 84.1758L106.546 79.743L118.495 82.9456L118.588 82.6006L106.639 79.398L118.857 81.3324L118.914 80.9803L106.696 79.0459L119.05 79.6931L119.066 79.3362L106.713 78.689L119.066 78.0418Z" fill="#233063"/>
<path d="M94.8945 31.8205L101.081 42.5347L93.8071 32.5248L93.5192 32.7341L100.79 42.7441L92.5127 33.5503L92.2486 33.7882L100.526 42.982L91.3326 34.7042L91.0922 34.9707L100.286 43.2485L90.2785 35.9772L90.0691 36.2651L100.079 43.5364L89.3625 37.3501L89.184 37.6594L99.8982 43.8457L88.5963 38.8134L88.4512 39.1393L99.7531 44.1717L87.9872 40.3481L87.8777 40.6883L99.6436 44.5119L87.5423 41.9398L87.4685 42.2896L99.5699 44.8593L87.2663 43.5673L87.2282 43.9218L99.5318 45.2162H87.1592V45.5731H99.5318L87.2282 46.8651L87.2663 47.2196L99.5699 45.9276L87.4685 48.4997L87.5423 48.8495L99.6436 46.275L87.8777 50.0986L87.9872 50.4389L99.7531 46.6153L88.4512 51.6476L88.5963 51.9736L99.8982 46.9412L89.184 53.1276L89.3625 53.4369L100.079 47.2506L90.0691 54.5219L90.2785 54.8121L100.286 47.5408L91.0922 55.8186L91.3326 56.0827L100.526 47.8049L92.2486 56.9988L92.5127 57.2391L100.79 48.0429L93.5192 58.0528L93.8071 58.2622L101.081 48.2523L94.8945 58.9689L95.2038 59.1473L101.39 48.4307L96.3578 59.735L96.6837 59.8802L101.716 48.5759L97.8924 60.3441L98.2327 60.4536L102.054 48.6877L99.4818 60.7891L99.8316 60.8628L102.404 48.7614L101.109 61.0651L101.466 61.1031L102.758 48.7995V61.1698H103.115V48.7995L104.409 61.1031L104.764 61.0651L103.47 48.7614L106.042 60.8628L106.391 60.7891L103.819 48.6877L107.643 60.4536L107.983 60.3441L104.16 48.5759L109.192 59.8802L109.518 59.735L104.486 48.4307L110.672 59.1473L110.979 58.9689L104.795 48.2523L112.066 58.2622L112.354 58.0528L105.083 48.0429L113.361 57.2391L113.627 56.9988L105.349 47.8049L114.543 56.0827L114.781 55.8186L105.587 47.5408L115.595 54.8121L115.807 54.5219L105.797 47.2506L116.511 53.4369L116.689 53.1276L105.975 46.9412L117.277 51.9736L117.422 51.6476L106.12 46.6153L117.886 50.4389L117.998 50.0986L106.23 46.275L118.331 48.8495L118.407 48.4997L106.306 45.9276L118.609 47.2196L118.645 46.8651L106.342 45.5731H118.714V45.2162H106.344L118.645 43.9218L118.609 43.5673L106.306 44.8593L118.407 42.2896L118.331 41.9398L106.23 44.5119L117.998 40.6883L117.886 40.3481L106.12 44.1717L117.422 39.1393L117.277 38.8134L105.975 43.8457L116.689 37.6594L116.511 37.3501L105.797 43.5364L115.807 36.2651L115.595 35.9772L105.587 43.2485L114.781 34.9707L114.543 34.7042L105.349 42.982L113.627 33.7882L113.361 33.5503L105.083 42.7441L112.354 32.7341L112.066 32.5248L104.795 42.5347L110.979 31.8205L110.672 31.642L104.486 42.3562L109.518 31.0543L109.192 30.9092L104.16 42.2111L107.983 30.4452L107.643 30.3334L103.819 42.1016L106.391 30.0003L106.042 29.9241L103.47 42.0255L104.764 29.7219L104.409 29.6862L103.115 41.9874V29.6172H102.758V41.9874L101.466 29.6862L101.109 29.7219L102.404 42.0255L99.8316 29.9241L99.4818 30.0003L102.054 42.1016L98.2327 30.3334L97.8924 30.4452L101.716 42.2111L96.6837 30.9092L96.3578 31.0543L101.39 42.3562L95.2038 31.642L94.8945 31.8205Z" fill="#233063"/>
<path d="M62.9434 1.86426C68.0523 1.86436 72.6872 3.91461 76.0605 7.2373C80.6173 11.7236 86.7574 14.2532 93.168 14.4053L93.4668 14.4131H93.4795C103.039 14.7748 110.834 22.4263 111.424 31.9287L111.446 32.3828L111.447 32.3955H111.446C111.447 32.4385 111.452 32.5651 111.453 32.6689H111.454C111.599 39.0383 114.088 45.1351 118.511 49.6904L118.628 49.8096C121.948 53.1827 123.998 57.8149 123.998 62.9238C123.998 68.033 121.948 72.6659 118.628 76.0391C114.139 80.5983 111.609 86.7383 111.457 93.1514L111.449 93.4502V93.4629H111.448C111.089 103.027 103.433 110.822 93.9287 111.409L93.4746 111.432C93.2799 111.439 93.0813 111.443 92.8789 111.443L92.8799 111.444C86.4769 111.485 80.3701 114.148 75.6172 118.534C72.2867 121.609 67.834 123.486 62.9434 123.486H62.9189C58.0277 123.486 53.5752 121.606 50.2451 118.534C45.4922 114.148 39.3877 111.485 32.9824 111.444V111.443C32.7804 111.443 32.5796 111.439 32.3867 111.432V111.431C22.6732 111.068 14.7781 103.177 14.4131 93.4629V93.4502L14.4053 93.1514C14.2532 86.7385 11.7234 80.6008 7.23438 76.0391C3.91436 72.6659 1.86426 68.033 1.86426 62.9238C1.86429 57.9743 3.78864 53.4723 6.92969 50.1289L7.2373 49.8086C11.5916 45.3836 14.1024 39.4733 14.3877 33.2695L14.4082 32.6689C14.409 32.5651 14.4139 32.4384 14.415 32.3955L14.416 32.3828C14.7835 22.6717 22.6713 14.7806 32.3828 14.4131H32.3945L32.6943 14.4053C39.1049 14.2532 45.245 11.7236 49.8018 7.2373L50.1221 6.92969C53.4655 3.7887 57.9673 1.86432 62.9189 1.86426H62.9434Z" fill="#E7E4DD" stroke="#233063" stroke-width="2.27203"/>
</svg>
