<svg width="11" height="20" viewBox="0 0 11 20" fill="none" xmlns="http://www.w3.org/2000/svg">
<path fill-rule="evenodd" clip-rule="evenodd" d="M7.22423 10.8601H10.2071L10.6589 7.42542H7.22423V5.2114C7.18989 4.77251 7.31879 4.33639 7.5862 3.98668C7.77249 3.82828 7.9896 3.71022 8.22382 3.63995C8.45804 3.56969 8.70428 3.54874 8.947 3.57844L10.7991 3.53354V0.51256C9.91416 0.411605 9.02382 0.366156 8.13325 0.37648C7.5402 0.347408 6.94728 0.436231 6.3888 0.63781C5.83031 0.839389 5.31734 1.14972 4.87957 1.55085C4.45508 1.993 4.12703 2.51848 3.91621 3.09402C3.70539 3.66956 3.61639 4.28261 3.65485 4.89434V7.42542H0.67334V10.8601H3.65485V19.6291H7.22423V10.8601Z" fill="#EAE7E2"/>
</svg>
