<svg width="20" height="20" viewBox="0 0 20 20" fill="none" xmlns="http://www.w3.org/2000/svg">
<path d="M9.91162 1.08789C12.4955 1.08789 12.8094 1.09933 13.812 1.14551C15.4365 1.21999 16.6206 1.70359 17.4165 2.5C18.2124 3.29636 18.695 4.47947 18.7681 6.10059C18.8135 7.10278 18.8247 7.41629 18.8247 10C18.8247 12.5837 18.8133 12.8977 18.7671 13.8994V13.9004C18.6937 15.5245 18.21 16.7083 17.4136 17.5039C16.6669 18.2498 15.5796 18.7206 14.1108 18.8379L13.811 18.8564C12.8094 18.9018 12.4949 18.9131 9.91162 18.9131C7.32824 18.9131 7.01491 18.9018 6.01221 18.8564C4.3877 18.782 3.2043 18.2987 2.40869 17.5029C1.66279 16.7567 1.19203 15.6696 1.07471 14.1992L1.05615 13.8994C1.01077 12.8978 0.999512 12.5833 0.999512 10C0.999512 8.06209 1.00522 7.40168 1.02783 6.76953L1.05713 6.10059C1.13162 4.47588 1.61469 3.29269 2.41064 2.49707C3.20664 1.70146 4.38997 1.21902 6.01318 1.14453L6.01221 1.14355C7.0144 1.09814 7.32791 1.08789 9.91162 1.08789ZM9.91162 1.57812C7.3659 1.57813 7.05361 1.58791 6.03467 1.63379C4.6586 1.69638 3.53857 2.05903 2.75146 2.84961C2.06321 3.54097 1.70461 4.48462 1.5835 5.62305L1.54541 6.12305C1.49954 7.14177 1.48975 7.45387 1.48975 10C1.48975 12.5463 1.49873 12.8589 1.54541 13.877V13.8779C1.608 15.2386 1.96364 16.3577 2.74951 17.1484C3.48687 17.8904 4.51722 18.2567 5.77881 18.3516L6.03467 18.3672C7.05309 18.4139 7.366 18.4238 9.91162 18.4238C12.4589 18.4238 12.7705 18.4139 13.7896 18.3672C15.166 18.3046 16.2867 17.9422 17.0737 17.1514C17.8601 16.3612 18.2158 15.2414 18.2788 13.8789V13.8779C18.3247 12.8597 18.3345 12.5477 18.3345 10.001C18.3345 7.45575 18.3255 7.14253 18.2788 6.12402C18.2163 4.75986 17.8598 3.6396 17.0728 2.84961C16.2853 2.0592 15.1646 1.69734 13.7896 1.63477C12.7705 1.58808 12.4573 1.57812 9.91162 1.57812ZM9.91162 5.72168C12.2742 5.72168 14.1898 7.63743 14.1899 10C14.1899 12.3635 12.2742 14.2793 9.91162 14.2793C7.54918 14.2792 5.6333 12.3627 5.6333 10C5.63341 7.6375 7.54912 5.72179 9.91162 5.72168ZM9.91162 6.21191C7.81965 6.21203 6.12365 7.90803 6.12354 10C6.12354 12.093 7.81968 13.788 9.91162 13.7881C12.0037 13.7881 13.6997 12.093 13.6997 10C13.6996 7.90796 12.0037 6.21191 9.91162 6.21191ZM14.9966 4.38574C15.2885 4.38574 15.5259 4.62302 15.5259 4.91602C15.5258 5.20896 15.2884 5.44629 14.9966 5.44629C14.7033 5.44611 14.4664 5.20802 14.4663 4.91602C14.4663 4.62396 14.7032 4.38592 14.9966 4.38574Z" fill="#EAE7E2" stroke="#EAE7E2" stroke-width="1.2263"/>
</svg>
