<svg width="21" height="20" viewBox="0 0 21 20" fill="none" xmlns="http://www.w3.org/2000/svg">
<path fill-rule="evenodd" clip-rule="evenodd" d="M15.6827 11.7163V19.1258C15.6799 19.1942 15.6927 19.2623 15.72 19.325C15.7474 19.3877 15.7886 19.4434 15.8406 19.4878C15.933 19.5733 16.0536 19.6218 16.1794 19.6239H19.7039C19.8297 19.6215 19.9502 19.5731 20.0427 19.4878C20.0947 19.4433 20.1358 19.3876 20.1632 19.3249C20.1905 19.2622 20.2033 19.1942 20.2006 19.1258V10.9025C20.2457 10.2445 20.1473 9.5846 19.9124 8.96833C19.6774 8.35207 19.3115 7.79415 18.8398 7.33315C17.7887 6.46684 16.4492 6.02942 15.0894 6.10843C14.4646 6.0758 13.8396 6.16722 13.2503 6.37743C12.661 6.58763 12.1192 6.91246 11.6561 7.33315C11.6629 7.22596 11.6476 7.11851 11.6112 7.01745V6.79155C11.5899 6.68598 11.5344 6.59036 11.4534 6.51939C11.3705 6.45676 11.2688 6.42413 11.1649 6.42686H7.8214C7.69329 6.43766 7.57313 6.49345 7.48222 6.58437C7.3913 6.67528 7.33551 6.79544 7.32471 6.92355V19.1231C7.3219 19.1915 7.33465 19.2596 7.36199 19.3223C7.38934 19.385 7.43056 19.4406 7.48256 19.4851C7.57493 19.5706 7.69556 19.619 7.8214 19.6212H11.2506C11.317 19.6256 11.3835 19.6158 11.4458 19.5924C11.5081 19.569 11.5646 19.5325 11.6116 19.4855C11.6587 19.4385 11.6951 19.3819 11.7185 19.3197C11.7419 19.2574 11.7517 19.1909 11.7473 19.1245V12.5287C11.7068 11.816 11.8818 11.1076 12.2494 10.4957C12.4523 10.2396 12.7166 10.039 13.0179 9.91269C13.3191 9.78634 13.6474 9.73831 13.9722 9.77307C14.2203 9.74189 14.4722 9.76855 14.7083 9.85093C14.9444 9.93332 15.1582 10.0692 15.333 10.248C15.6071 10.6863 15.7339 11.2008 15.695 11.7163H15.6827ZM4.8848 1.05306C4.67074 0.83346 4.41396 0.660036 4.13031 0.543484C3.84665 0.426931 3.54212 0.369722 3.23551 0.375383C2.92868 0.369993 2.62401 0.427594 2.34033 0.544623C2.05665 0.661653 1.79999 0.835624 1.58622 1.05578C1.36695 1.26952 1.19372 1.52586 1.07718 1.80902C0.960642 2.09218 0.90325 2.39619 0.908538 2.70235C0.904038 3.01249 0.961954 3.32037 1.07884 3.60768C1.19573 3.89499 1.3692 4.15586 1.58894 4.37477C1.79951 4.60048 2.05511 4.77949 2.33921 4.90021C2.62331 5.02093 2.92958 5.08067 3.23823 5.07559C3.54686 5.08059 3.85311 5.0208 4.13719 4.90009C4.42128 4.77937 4.67689 4.60042 4.88752 4.37477C5.10726 4.15586 5.28073 3.89499 5.39761 3.60768C5.5145 3.32037 5.57242 3.01249 5.56792 2.70235C5.57287 2.39534 5.51481 2.09058 5.39731 1.8069C5.27981 1.52322 5.10538 1.26665 4.8848 1.05306ZM5.31345 6.58743C5.27072 6.5392 5.21868 6.5001 5.16044 6.47251C5.10221 6.44491 5.039 6.42938 4.97461 6.42686H1.54131C1.47296 6.42405 1.40487 6.4368 1.34216 6.46414C1.27946 6.49149 1.22378 6.53271 1.17934 6.58471C1.09407 6.67722 1.04565 6.79776 1.04326 6.92355V19.1231C1.03884 19.1895 1.04867 19.256 1.07207 19.3183C1.09547 19.3806 1.13191 19.4371 1.17894 19.4841C1.22597 19.5312 1.28251 19.5676 1.34477 19.591C1.40704 19.6144 1.47358 19.6242 1.53995 19.6198H4.97461C5.1004 19.6174 5.22094 19.569 5.31345 19.4837C5.36537 19.4392 5.40654 19.3835 5.43388 19.3208C5.46122 19.2582 5.47401 19.1901 5.4713 19.1218V6.92627C5.46912 6.86208 5.45402 6.79899 5.4269 6.74077C5.39978 6.68255 5.36119 6.6304 5.31345 6.58743Z" fill="#EAE7E2"/>
</svg>
